<?xml version="1.0" encoding="utf-8"?>
<!-- Generator: Adobe Illustrator 24.3.0, SVG Export Plug-In . SVG Version: 6.00 Build 0)  -->
<svg version="1.1" id="Layer_1" xmlns="http://www.w3.org/2000/svg" xmlns:xlink="http://www.w3.org/1999/xlink" x="0px" y="0px"
	 viewBox="0 0 1080 1080" style="enable-background:new 0 0 1080 1080;" xml:space="preserve">
<style type="text/css">
	.st0{fill:#B79967;}
</style>
<path class="st0" d="M466.9,452.1l22.9-5.6v19.3l-22.9,5.6V452.1z M355.6,498.7l31.9-7.8v-19.3l-31.9,7.8V498.7z M863,791.8v38.2
	h64.8c16.6,0,16.7,25.2,0,25.2H150.3c-16.6,0-16.7-25.2,0-25.2h64.8v-38.6c-17.4-4.9-32.6-10.3-45.5-16.1
	c-39.8-17.9-60-41.6-60-70.5c0-37.3,35.4-66.3,105.6-86.7V444V313.5c0-5.8,4-10.9,9.6-12.2L536,225c0.2-0.2,3.4-0.6,5.9,0
	c0,0,311.4,76.3,311.5,76.3c5.6,1.4,9.6,6.4,9.6,12.2v303.9c22.5,6.3,42.9,13.8,59.5,22.7c31.7,16.9,47.7,38.7,47.7,64.5
	c0,27-17.5,49.4-52,66.7C903.4,778.8,884.8,785.6,863,791.8L863,791.8z M625.8,610.3c-17.4-0.9-19,25.8-1.2,26.7
	c7.4,0.3,183.1,9,260.7,42.2c21.7,9.3,26.8,37.9,9.5,54.1c-9.7,9.1-20.3,16-31.7,20.7v11.5c17.3-5.1,32-10.7,43.9-16.6
	c51.3-25.7,49.5-62,3.7-86.5C844,626.7,701.2,613.9,625.8,610.3L625.8,610.3z M722.5,732.6v-62.2c-30.6-3.5-59.9-6-83.1-7.4v62
	L722.5,732.6z M515,475.8v-45.3c0-8.1-7.7-14.2-15.6-12.2l-48,11.8c-5.6,1.4-9.6,6.4-9.6,12.2v45.3c0,8.1,7.5,14.2,15.6,12.3
	l48-11.8C511,486.6,515,481.6,515,475.8z M397.2,443.3l-57.2,14c-5.6,1.4-9.6,6.5-9.6,12.2v45.3c0,7.9,7.3,14.2,15.6,12.2l57.2-14
	c5.6-1.4,9.6-6.5,9.6-12.2v-45.3C412.8,447.3,405.1,441.3,397.2,443.3z M551.7,323.7v33.4l286.1,70.1v-33.4L551.7,323.7z
	 M566.3,476.6c0,5.8,4,10.9,9.6,12.2l38.3,9.4v-26l-22.7-5.5v-19.3l22.7,5.5v-24.5c0-0.5,0-1,0.1-1.4l-32.3-7.9
	c-8-1.9-15.6,4.1-15.6,12.3L566.3,476.6z M639.4,585.8c22,1.2,51.1,3.3,83.1,6.7V464.7l-83.1-20.3V585.8L639.4,585.8z M786.2,540.3
	l51.5,12.6v-26l-35.9-8.8v-19.3l35.9,8.8v-26l-45.6-11.2c-8-1.9-15.6,4.2-15.6,12.3v45.3C776.6,533.9,780.6,538.9,786.2,540.3
	L786.2,540.3z M526.4,323.7l-286.1,70.1v33.4l286.1-70.1L526.4,323.7z M240.3,552.9l51.5-12.6c5.6-1.4,9.6-6.5,9.6-12.2v-45.3
	c0-8.1-7.6-14.2-15.6-12.3l-45.6,11.2v26l35.9-8.8v19.3l-35.9,8.8L240.3,552.9z M215.1,698.5c-3.8,1.3-7.4,2.7-10.7,4.1
	c-4.9,2.1-6.1,8.6-2.2,12.4c4.2,4,8.5,7.3,12.9,10.1L215.1,698.5z M863,725.9c5-3,9.8-6.6,14.5-11c4-3.8,2.9-10.4-2.2-12.5
	c-3.8-1.6-7.9-3.2-12.3-4.7V725.9z M215.1,765v-11.6c-10.8-4.5-21-11.3-30.3-20.1c-17-16.2-11.9-44.7,9.7-53.9
	c62.9-26.7,190.9-37.7,205.3-38.9c11.8-0.9,18.3,13.4,9.8,21.6c-0.2,0.2-0.3,0.3-0.5,0.5c-13.2,11.6,4.3,31.7,17.6,20.1l56-49
	c6.1-5.3,6-14.8,0-20.1l-55.9-49c-13.2-11.6-30.8,8.5-17.6,20.1l7.2,6.3c8.3,7.3,3.8,21.2-7.4,22.1c-66.4,5-274.2,25.3-274.2,91.6
	c0,18.1,15.2,34.1,45.2,47.5C190,756.7,201.8,761,215.1,765L215.1,765z M240.3,829.9h286.1v-87.4l-286.1,25.9L240.3,829.9z
	 M837.8,829.9v-61.6c-129.5-11.7-58.6-5.3-286.1-25.9v87.4L837.8,829.9z"/>
</svg>
