<?xml version="1.0" encoding="utf-8"?>
<!-- Generator: Adobe Illustrator 24.3.0, SVG Export Plug-In . SVG Version: 6.00 Build 0)  -->
<svg version="1.1" id="Layer_1" xmlns="http://www.w3.org/2000/svg" xmlns:xlink="http://www.w3.org/1999/xlink" x="0px" y="0px"
	 viewBox="0 0 1080 1080" style="enable-background:new 0 0 1080 1080;" xml:space="preserve">
<style type="text/css">
	.st0{fill:#B89968;}
	.st1{fill:#FFFFFF;}
</style>
<circle class="st0" cx="540" cy="540" r="501.2"/>
<polygon class="st1" points="539.4,448.1 483.9,434.4 539.4,422 595.1,434.4 "/>
<polygon class="st1" points="626,676.6 580.2,687.7 580.2,589.3 626,577.1 "/>
<path class="st1" d="M697.4,659.1l-53.3,13.1V565.4c0-2.8-1.3-5.5-3.5-7.2c-2.3-1.7-5.2-2.3-7.9-1.5l-63.9,16.9
	c-4,1.1-6.7,4.6-6.7,8.8v110l-13.5,3.3V539.7l148.9-36.5V659.1z"/>
<path class="st1" d="M697.4,484.4l-148.9,36.5v-56.4l88.7-21.7c0,0,0,0,0.1,0l60.1-14.7C697.4,428,697.4,484.4,697.4,484.4z"/>
<path class="st1" d="M539.4,388.8L666.6,417l-31.6,7.7l-93.6-20.8c-1.3-0.3-2.6-0.3-3.9,0l-93.4,20.7l-31.3-7.7L539.4,388.8
	L539.4,388.8z"/>
<polygon class="st1" points="530.4,695.4 382,659.1 382,503.2 530.4,539.6 "/>
<path class="st1" d="M530.4,520.9L382,484.4V428l59.7,14.6c0,0,0,0,0.1,0l88.6,21.7V520.9L530.4,520.9z"/>
<path class="st1" d="M363.4,839.1C259.6,777.1,195.2,663.7,195.2,543c0-190,154.5-344.5,344.5-344.5l-28.8,28.8
	c-3.5,3.5-3.5,9.3,0,12.8c1.8,1.8,4.1,2.6,6.5,2.6c2.4,0,4.6-0.9,6.5-2.6l43.7-43.6c3.5-3.5,3.5-9.3,0-12.8L520.9,137
	c-3.5-3.5-9.3-3.5-12.8,0c-3.5,3.5-3.5,9.3,0,12.8l30.5,30.6c-199.4,0.7-361.4,163.1-361.4,362.7c0,127.1,67.8,246.5,177.1,311.7
	c1.5,0.9,3.1,1.3,4.6,1.3c3.1,0,6.1-1.5,7.8-4.5c2.5-4.3,1.2-9.9-3.2-12.5L363.4,839.1z"/>
<path class="st1" d="M902.4,543c0-127.1-67.8-246.5-177.1-311.7c-4.4-2.5-9.9-1.2-12.5,3.2c-2.5,4.3-1.2,9.9,3.2,12.5
	C819.8,308.8,884.3,422.3,884.3,543c0,189.4-153.7,343.5-342.8,344.5l34.1-34.2c3.5-3.5,3.5-9.3,0-12.8c-3.5-3.5-9.3-3.5-12.8,0
	l-46.6,46.6c-3.5,3.5-3.5,9.3,0,12.8l43.7,43.7c1.8,1.8,4.1,2.6,6.5,2.6c2.4,0,4.6-0.9,6.5-2.6c3.5-3.5,3.5-9.3,0-12.8l-25.3-25.3
	C744,901.4,902.5,740.5,902.4,543L902.4,543z"/>
</svg>
