<?xml version="1.0" encoding="utf-8"?>
<!-- Generator: Adobe Illustrator 24.3.0, SVG Export Plug-In . SVG Version: 6.00 Build 0)  -->
<svg version="1.1" id="Layer_1" xmlns="http://www.w3.org/2000/svg" xmlns:xlink="http://www.w3.org/1999/xlink" x="0px" y="0px"
	 viewBox="0 0 1080 1080" style="enable-background:new 0 0 1080 1080;" xml:space="preserve">
<style type="text/css">
	.st0{fill:#B89968;}
	.st1{fill:#FFFFFF;}
</style>
<circle class="st0" cx="539.9" cy="540" r="501.2"/>
<path class="st1" d="M355.5,363.5H468c7.6,0,13.7-6,13.7-13.7s-6-13.7-13.7-13.7H355.5c-7.6,0-13.7,6-13.7,13.7
	S347.9,363.5,355.5,363.5z"/>
<path class="st1" d="M355.5,406.1H468c7.6,0,13.7-6,13.7-13.7c0-7.6-6-13.7-13.7-13.7H355.5c-7.6,0-13.7,6-13.7,13.7
	C341.9,400.1,347.9,406.1,355.5,406.1z"/>
<path class="st1" d="M355.5,448.1H468c7.6,0,13.7-6,13.7-13.7c0-7.6-6-13.7-13.7-13.7H355.5c-7.6,0-13.7,6-13.7,13.7
	C341.9,442.1,347.9,448.1,355.5,448.1z"/>
<path class="st1" d="M355.5,490.2H468c7.6,0,13.7-6,13.7-13.7c0-7.6-6-13.7-13.7-13.7H355.5c-7.6,0-13.7,6-13.7,13.7
	C341.9,484.2,347.9,490.2,355.5,490.2z"/>
<path class="st1" d="M355.5,532.2H468c7.6,0,13.7-6,13.7-13.7c0-7.6-6-13.7-13.7-13.7H355.5c-7.6,0-13.7,6-13.7,13.7
	C341.9,526.2,347.9,532.2,355.5,532.2z"/>
<path class="st1" d="M355.5,574.8H468c7.6,0,13.7-6,13.7-13.7c0-7.6-6-13.7-13.7-13.7H355.5c-7.6,0-13.7,6-13.7,13.7
	C341.9,568.8,347.9,574.8,355.5,574.8z"/>
<path class="st1" d="M355.5,616.9H468c7.6,0,13.7-6,13.7-13.7c0-7.6-6-13.7-13.7-13.7H355.5c-7.6,0-13.7,6-13.7,13.7
	C341.9,610.9,347.9,616.9,355.5,616.9z"/>
<path class="st1" d="M355.5,659H468c7.6,0,13.7-6,13.7-13.7c0-7.6-6-13.7-13.7-13.7H355.5c-7.6,0-13.7,6-13.7,13.7
	C341.9,652.9,347.9,659,355.5,659z"/>
<path class="st1" d="M355.5,701H468c7.6,0,13.7-6,13.7-13.7c0-7.6-6-13.7-13.7-13.7H355.5c-7.6,0-13.7,6-13.7,13.7
	C341.9,695,347.9,701,355.5,701z"/>
<path class="st1" d="M355.5,743.6H468c7.6,0,13.7-6,13.7-13.7c0-7.6-6-13.7-13.7-13.7H355.5c-7.6,0-13.7,6-13.7,13.7
	C341.9,737.6,347.9,743.6,355.5,743.6z"/>
<path class="st1" d="M355.5,785.7H468c7.6,0,13.7-6,13.7-13.7s-6-13.7-13.7-13.7H355.5c-15.8,0-28.4-12.6-28.4-28.4V349.8
	c0-15.8,12.6-28.4,28.4-28.4H468c7.6,0,13.7-6,13.7-13.7s-6-13.7-13.7-13.7H355.5c-30.6,0-55.7,25.1-55.7,55.7v379.6
	C299.8,760.5,325,785.7,355.5,785.7z"/>
<path class="st1" d="M742.7,731.6c4.9-8.2,7.6-17.5,7.6-27.9v-27.3c0-30-24.6-54.6-54.6-54.6h-27.3v-81.9c0-3.8-1.6-7.1-3.8-9.8
	l-18-17.5l17.5-17.5c2.7-2.7,3.8-6,3.8-9.8V307.8c0.5-7.6-5.5-13.7-13.1-13.7s-13.7,6-13.7,13.7v172l-13.7,13.7l-13.7-13.7v-172
	c0-7.6-6-13.7-13.7-13.7s-13.7,6-13.7,13.7v177.5c0,3.8,1.6,7.1,3.8,9.8l18,17.5l-17.5,17.5c-2.7,2.7-4.4,6-4.4,9.8v81.9h-27.3
	c-30,0-54.6,24.6-54.6,54.6v27.3c0,30,24.6,54.6,54.6,54.6s54.6-24.6,54.6-54.6V545.4l13.7-13.7l13.7,13.7v158.4
	c0,30,24.6,54.6,54.6,54.6c10.4,0,19.7-2.7,27.9-7.6l31.1,31.1c2.7,2.7,6,3.8,9.8,3.8c3.8,0,7.1-1.1,9.8-3.8
	c5.5-5.5,5.5-14.2,0-19.1L742.7,731.6z M586.6,703.7c0,15.3-12,27.3-27.3,27.3c-15.3,0-27.3-12-27.3-27.3v-27.3
	c0-15.3,12-27.3,27.3-27.3h27.3V703.7z M723.1,703.7c0,15.3-12,27.3-27.3,27.3c-15.3,0-27.3-12-27.3-27.3v-54.6h27.3
	c15.3,0,27.3,12,27.3,27.3V703.7z"/>
</svg>
