<svg width="16" height="12" viewBox="0 0 16 12" fill="none" xmlns="http://www.w3.org/2000/svg">
<path d="M0.170769 5.77578C0.170772 5.42653 0.316221 5.10251 0.453957 4.85921C0.60259 4.59666 0.802475 4.3256 1.02176 4.06131C1.46165 3.53113 2.03563 2.96176 2.59263 2.44673C3.15291 1.92868 3.71125 1.45165 4.12835 1.105C4.33724 0.931385 4.51152 0.7898 4.63392 0.69134C4.69514 0.642097 4.74343 0.603603 4.77664 0.577243L4.81489 0.546965L4.82505 0.538968L4.82857 0.5362C5.1214 0.30652 5.53402 0.372799 5.74973 0.684605C5.96542 0.996396 5.90291 1.43533 5.61011 1.66502L5.59894 1.67382L5.56377 1.70166C5.53267 1.72634 5.48664 1.76303 5.42782 1.81035C5.31013 1.90501 5.14142 2.04207 4.93874 2.21052C4.53267 2.54801 3.99347 3.00884 3.45619 3.50563C2.91564 4.00544 2.39207 4.52791 2.0088 4.98984C1.98456 5.01906 1.9611 5.04777 1.93842 5.07597L14.8781 5.07597C15.2418 5.07597 15.5366 5.38991 15.5366 5.77718C15.5366 6.16444 15.2418 6.47839 14.8781 6.47839L1.94065 6.47838C1.96263 6.50569 1.98535 6.53348 2.0088 6.56174C2.39207 7.02367 2.91565 7.54614 3.45619 8.04596C3.99346 8.54274 4.53267 9.00357 4.93873 9.34106C5.14142 9.50951 5.31013 9.64657 5.42782 9.74124C5.48664 9.78856 5.53267 9.82525 5.56377 9.84993L5.59894 9.87776L5.61011 9.88656C5.90291 10.1163 5.96542 10.5552 5.74972 10.867C5.53402 11.1788 5.1214 11.2451 4.82857 11.0154L4.82504 11.0126L4.81489 11.0046L4.77664 10.9743C4.74343 10.948 4.69514 10.9095 4.63392 10.8602C4.51152 10.7618 4.33724 10.6202 4.12835 10.4466C3.71125 10.0999 3.15291 9.62291 2.59263 9.10485C2.03563 8.58982 1.46165 8.02046 1.02176 7.49028C0.802475 7.22599 0.60259 6.95492 0.453957 6.69237C0.317049 6.45054 0.172519 6.12893 0.170784 5.78208" fill="white"/>
</svg>
