<?xml version="1.0" encoding="utf-8"?>
<!-- Generator: Adobe Illustrator 24.3.0, SVG Export Plug-In . SVG Version: 6.00 Build 0)  -->
<svg version="1.1" id="Layer_1" xmlns="http://www.w3.org/2000/svg" xmlns:xlink="http://www.w3.org/1999/xlink" x="0px" y="0px"
	 viewBox="0 0 1080 1080" style="enable-background:new 0 0 1080 1080;" xml:space="preserve">
<style type="text/css">
	.st0{fill:#B79967;}
	.st1{fill:#FFFFFF;}
</style>
<circle class="st0" cx="539.9" cy="539.9" r="501.2"/>
<path class="st1" d="M538.3,245.9c-47,0-91.8,10.7-133.3,32c-7.3,3.7-10.1,12.6-6.4,19.8c3.7,7.2,12.6,10.1,19.8,6.4
	c37.3-19.1,77.6-28.7,119.9-28.7c351.9,14.5,351.9,516,0,530.6c-248.2-0.1-360.1-315.3-167-471.2c14.9-12.4-3.3-34.9-18.5-22.9
	C283.4,368,243.6,451.4,243.6,540.7c0,162.5,132.2,294.8,294.8,294.8C929.4,819.2,929.3,262,538.3,245.9L538.3,245.9z"/>
<path class="st1" d="M695.1,693.5c6.2,5.3,15.5,4.6,20.8-1.6c36-42,55.8-95.8,55.8-151.2c-12.8-309.6-454-309.7-466.8,0
	c-2.5,184.4,213.5,298.9,364.2,193.1c15.8-11-0.7-35.1-16.6-24.3c-131.7,92.3-320.3-7.8-318.1-168.8c0-112.5,91.4-204,203.8-204
	c172-1.3,268,206.3,155.2,336C688.2,678.9,688.9,688.2,695.1,693.5L695.1,693.5z"/>
<path class="st1" d="M493.8,658.8c11.6,0,23.3-4.4,32.1-13.3L671.5,500c41.3-43.6-20.5-104.6-64.2-64.2L493.8,549.2l-24.5-24.5
	c-43.4-41.2-105.5,20.8-64.2,64.3l56.6,56.6C470.5,654.4,482.1,658.9,493.8,658.8L493.8,658.8z M425.9,568.2
	c-14.6-14.8,7.7-37.3,22.5-22.6l34.9,34.8c5.7,5.7,15.1,5.7,20.8,0l123.9-123.9c15-14.2,37.2,7.4,22.5,22.5L505.1,624.7
	c-6.2,6.2-16.3,6.2-22.6,0L425.9,568.2L425.9,568.2z"/>
</svg>
