<svg xmlns="http://www.w3.org/2000/svg" version="1.1" xmlns:xlink="http://www.w3.org/1999/xlink" width="512" height="512" x="0" y="0" viewBox="0 0 48 48" style="enable-background:new 0 0 512 512" xml:space="preserve" fill-rule="evenodd" class=""><g><path fill="#bc9761" fill-rule="nonzero" d="M5 3a2 2 0 0 0-1.414.586 2 2 0 0 0 0 2.828L21.172 24 3.586 41.586a2 2 0 0 0 0 2.828 2 2 0 0 0 2.828 0L24 26.828l17.586 17.586a2 2 0 0 0 2.828 0 2 2 0 0 0 0-2.828L26.828 24 44.414 6.414a2 2 0 0 0 0-2.828A2 2 0 0 0 43 3a2 2 0 0 0-1.414.586L24 21.172 6.414 3.586A2 2 0 0 0 5 3z" clip-rule="nonzero" opacity="1" data-original="#f44336" class=""></path></g></svg>