<svg width="852" height="1139" viewBox="0 0 852 1139" fill="none" xmlns="http://www.w3.org/2000/svg">
<path d="M426 1138.21L446.207 1118L426 1097.79L405.793 1118L426 1138.21ZM422.5 829V1118H429.5V829H422.5Z" fill="#BC9761"/>
<g opacity="0.5">
<path d="M426.163 871.415C410.464 871.415 396.501 859.052 392.951 842.041C391.846 839.936 386.166 830.817 366.444 822.838C358.319 820.558 337.413 813.455 317.217 795.743C300.808 781.275 280.061 755.32 274.46 713.582H268.149C253.239 713.582 239.906 702.621 235.489 686.838C221.289 681.928 211.427 667.109 211.427 650.536V643.522C196.36 640.979 182.317 635.542 169.774 627.388C155.969 618.356 143.977 606.255 134.195 591.174C120.547 570.304 114.946 549.435 113.053 541.368C105.953 519.359 97.6696 513.046 95.7763 511.818C80.4719 507.873 69.3485 492.352 69.3485 474.903C69.3485 463.942 73.6874 453.508 81.1819 446.318H78.3419C77.7108 446.318 77.2374 445.791 77.2374 445.09V439.741C77.2374 439.04 77.7108 438.514 78.3419 438.514H81.0241V434.392C81.0241 433.691 81.4974 433.165 82.1285 433.165H84.8896V429.044C84.8896 428.342 85.363 427.816 85.9941 427.816H88.9919V400.195C88.9919 399.494 89.4652 398.968 90.0963 398.968H90.1752V360.474H88.1241C87.493 360.474 87.0196 359.948 87.0196 359.246V355.037C87.0196 354.336 87.493 353.81 88.1241 353.81H92.8574V309.967C92.8574 309.792 92.8574 309.704 92.9363 309.529L96.4074 298.656V262.003H95.3819C94.9085 262.003 94.5141 261.74 94.3563 261.302L90.2541 250.254C90.1752 250.078 90.1752 249.99 90.1752 249.815V235.259C90.1752 234.558 90.6485 234.032 91.2796 234.032H96.4074V191.855H95.3819C94.9085 191.855 94.5141 191.592 94.3563 191.154L90.2541 180.105C90.1752 179.93 90.1752 179.842 90.1752 179.667V165.111C90.1752 164.41 90.6485 163.884 91.2796 163.884H95.5396V160.727C95.5396 160.639 95.5396 160.464 95.6185 160.376L98.3796 150.292C94.7508 147.223 92.7785 142.664 92.7785 137.052C92.7785 127.582 98.3007 111.448 106.269 105.661C105.953 105.222 105.795 104.696 105.795 104.082V101.89C105.795 100.4 106.9 99.2596 108.162 99.2596H108.714V96.103C107.61 95.5769 106.584 94.7877 105.716 93.8232C101.851 89.5266 101.851 82.5995 105.716 78.3906C107.373 76.5492 109.661 75.4093 112.027 75.2339C112.895 75.1462 113.842 75.2339 114.71 75.497C115.262 75.5846 115.577 76.1984 115.577 76.8122C115.499 77.426 115.104 77.8645 114.552 77.8645C113.842 77.8645 113.211 78.0398 112.58 78.3906C112.027 78.6536 111.475 79.0921 111.081 79.6182C110.055 80.7581 109.503 82.2487 109.503 83.827C109.503 85.4054 110.055 86.896 111.081 88.0359C111.554 88.562 112.027 88.9128 112.58 89.1758C114.631 90.2281 116.997 89.702 118.575 88.0359C119.522 86.9837 120.074 85.5808 120.153 84.0901C120.153 83.4763 120.626 83.0379 121.179 82.9502C121.731 82.8625 122.204 83.3009 122.362 83.9147C123.072 87.5975 122.046 91.2803 119.68 93.9108C118.496 95.2261 117.155 96.103 115.577 96.6291V99.3473H116.13C117.471 99.3473 118.496 100.575 118.496 101.978V104.17C118.496 104.784 118.339 105.31 118.023 105.748C125.991 111.448 131.513 127.67 131.513 137.14C131.513 142.751 129.62 147.223 125.912 150.38L128.673 160.464C128.673 160.552 128.752 160.727 128.752 160.815V163.971H133.012C133.643 163.971 134.116 164.497 134.116 165.199V179.755C134.116 179.93 134.116 180.105 134.037 180.193L129.935 191.241C129.777 191.68 129.383 191.943 128.91 191.943H127.884V234.119H133.012C133.643 234.119 134.116 234.646 134.116 235.347V249.903C134.116 250.078 134.116 250.254 134.037 250.341L129.935 261.39C129.777 261.828 129.383 262.091 128.91 262.091H127.884V298.743L128.594 300.936C133.564 291.378 141.216 286.117 151.235 285.328V283.399C150.92 283.048 150.683 282.522 150.683 281.908C150.683 281.294 150.92 280.768 151.235 280.417L152.34 256.216C151.472 255.865 150.683 255.252 150.131 254.375C149.026 252.796 148.474 250.604 148.79 248.5C148.869 247.886 149.342 247.448 149.815 247.448C150.367 247.448 150.762 247.886 150.92 248.412C151.077 249.289 151.393 250.078 151.787 250.692C152.024 251.043 152.261 251.306 152.576 251.481L152.813 246.132C152.813 245.519 153.286 244.992 153.917 244.992C154.47 244.992 154.943 245.519 155.022 246.132L155.259 251.393C155.495 251.218 155.811 250.955 155.969 250.604C156.442 249.99 156.757 249.114 156.915 248.149C156.994 247.535 157.467 247.097 157.941 247.097C158.493 247.097 158.887 247.535 159.045 248.149C159.361 250.341 158.887 252.621 157.704 254.287C157.073 255.164 156.284 255.778 155.495 256.128L156.6 280.33C156.915 280.68 157.152 281.294 157.152 281.82C157.152 282.434 156.915 282.96 156.6 283.311V285.24C175.454 286.555 182.002 303.391 184.29 314.351C192.967 310.406 202.197 307.6 211.822 306.021V299.006C211.822 282.434 221.683 267.615 235.883 262.705C240.301 246.922 253.633 235.961 268.543 235.961H274.854C280.455 194.223 301.124 168.268 317.612 153.8C337.728 136.087 358.713 128.897 366.839 126.705C386.64 118.813 392.32 109.606 393.345 107.502C396.895 90.4034 410.859 78.1275 426.557 78.1275C442.256 78.1275 456.22 90.4911 459.77 107.502C460.874 109.606 466.554 118.726 486.276 126.705C494.402 128.985 515.307 136.087 535.503 153.8C551.912 168.268 572.66 194.223 578.261 235.961H584.572C599.482 235.961 612.814 246.922 617.232 262.705C631.432 267.615 641.293 282.434 641.293 299.006V306.021C648.866 307.249 656.282 309.353 663.303 312.072C666.222 300.146 673.322 286.468 690.441 285.328V283.399C690.125 283.048 689.889 282.522 689.889 281.908C689.889 281.294 690.125 280.768 690.441 280.417L691.545 256.216C690.677 255.865 689.888 255.252 689.336 254.375C688.153 252.796 687.68 250.517 687.995 248.324C688.074 247.711 688.547 247.272 689.1 247.272C689.652 247.272 690.046 247.711 690.125 248.324C690.283 249.289 690.599 250.078 691.072 250.78C691.309 251.043 691.545 251.306 691.782 251.569L692.019 246.308C692.019 245.694 692.492 245.168 693.123 245.168C693.675 245.168 694.149 245.694 694.227 246.308L694.464 251.656C694.78 251.481 695.016 251.218 695.253 250.867C695.726 250.254 696.042 249.464 696.121 248.588C696.2 247.974 696.673 247.535 697.225 247.623C697.777 247.623 698.172 248.061 698.251 248.675C698.487 250.78 698.014 253.059 696.91 254.55C696.278 255.427 695.568 256.041 694.701 256.391L695.253 280.593C695.568 280.943 695.805 281.557 695.805 282.083C695.805 282.697 695.568 283.223 695.253 283.574V285.503C705.272 286.292 712.924 291.553 717.894 301.111L718.604 298.919V262.266H717.578C717.105 262.266 716.711 262.003 716.553 261.565L712.451 250.517C712.372 250.341 712.372 250.254 712.372 250.078V235.522C712.372 234.821 712.845 234.295 713.476 234.295H718.604V192.118H717.578C717.105 192.118 716.711 191.855 716.553 191.417L712.451 180.368C712.372 180.193 712.372 180.105 712.372 179.93V165.374C712.372 164.673 712.845 164.147 713.476 164.147H717.736V160.99C717.736 160.902 717.736 160.727 717.815 160.639L720.576 150.555C716.947 147.486 714.975 142.927 714.975 137.315C714.975 127.845 720.497 111.711 728.465 105.924C728.15 105.485 727.992 104.959 727.992 104.345V102.153C727.992 100.663 729.096 99.5227 730.358 99.5227H730.911V96.8045C729.333 96.2783 727.992 95.3138 726.808 94.0862C724.442 91.4557 723.416 87.6852 724.126 84.0901C724.205 83.4763 724.757 83.1256 725.31 83.1256C725.862 83.2133 726.256 83.6517 726.335 84.2655C726.414 85.7561 726.966 87.1591 727.913 88.2113C729.491 89.965 731.936 90.4034 733.908 89.3512C734.461 89.0882 735.013 88.6497 735.407 88.2113C736.433 87.0714 736.985 85.5808 736.985 84.0024C736.985 82.4241 736.433 80.9334 735.407 79.7935C734.934 79.2674 734.461 78.9167 733.908 78.5659C733.277 78.2152 732.567 78.0398 731.936 78.0398C731.384 78.0398 730.911 77.5137 730.911 76.9876C730.832 76.3738 731.226 75.8477 731.778 75.6723C732.646 75.497 733.593 75.4093 734.461 75.4093C736.827 75.5846 739.115 76.7245 740.772 78.5659C744.637 82.8625 744.637 89.7896 740.772 93.9985C739.904 94.9631 738.879 95.7522 737.774 96.2783V99.435H738.326C739.667 99.435 740.693 100.663 740.693 102.066V104.258C740.693 104.871 740.535 105.398 740.22 105.836C748.187 111.536 753.71 127.757 753.71 137.227C753.71 142.839 751.816 147.311 748.108 150.468L750.87 160.552C750.87 160.639 750.948 160.815 750.948 160.902V164.059H755.208C755.84 164.059 756.313 164.585 756.313 165.287V179.842C756.313 180.018 756.313 180.193 756.234 180.281L752.132 191.329C751.974 191.768 751.58 192.031 751.106 192.031H750.081V234.207H755.208C755.84 234.207 756.313 234.733 756.313 235.435V249.99C756.313 250.166 756.313 250.341 756.234 250.429L752.132 261.477C751.974 261.916 751.58 262.179 751.106 262.179H750.081V298.831L753.552 309.704C753.631 309.792 753.631 309.967 753.631 310.143V353.985H758.364C758.995 353.985 759.469 354.511 759.469 355.213V359.422C759.469 360.123 758.995 360.649 758.364 360.649H756.313V399.143H756.392C757.023 399.143 757.496 399.669 757.496 400.371V427.904H760.494C761.125 427.904 761.598 428.43 761.598 429.131V433.253H764.36C764.991 433.253 765.464 433.779 765.464 434.48V438.601H768.146C768.777 438.601 769.251 439.127 769.251 439.829V444.476C777.928 451.666 783.135 462.978 783.135 474.903C783.135 492.352 772.012 507.873 756.707 511.818C754.814 513.046 746.61 519.359 739.431 541.368C737.616 549.435 731.936 570.304 718.367 591.174C708.585 606.168 696.594 618.356 682.789 627.388C670.166 635.63 656.203 641.066 641.135 643.522V650.536C641.135 667.109 631.274 681.928 617.074 686.838C612.656 702.621 599.324 713.582 584.414 713.582H578.103C572.502 755.32 551.833 781.275 535.345 795.743C515.228 813.455 494.244 820.646 486.119 822.838C466.317 830.729 460.637 839.936 459.533 842.041C455.904 859.052 441.941 871.415 426.163 871.415ZM79.3674 443.862H84.3374C84.8108 443.862 85.2052 444.213 85.363 444.652C85.5208 445.178 85.363 445.704 84.9685 445.967C76.6063 452.719 71.5574 463.504 71.5574 474.815C71.5574 491.212 82.0496 505.856 96.4863 509.451C96.5652 509.451 96.6441 509.539 96.8019 509.539C99.2474 511.029 107.846 517.693 115.183 540.492V540.579C116.919 548.471 122.52 568.989 135.931 589.683C145.555 604.414 157.31 616.339 170.8 625.195C183.422 633.438 197.464 638.787 212.611 641.154C213.163 641.242 213.557 641.768 213.557 642.382V650.449C213.557 666.144 223.024 680.174 236.593 684.558C236.987 684.646 237.224 684.997 237.303 685.347C241.247 700.429 253.87 710.951 267.991 710.951H275.249C275.801 710.951 276.274 711.39 276.353 712.004C281.639 753.566 302.15 779.346 318.401 793.639C338.281 811.088 358.871 818.103 366.839 820.383H366.917C387.428 828.625 393.424 838.095 394.765 840.813C394.844 840.901 394.844 840.989 394.844 841.164C398.157 857.21 411.253 868.873 426.005 868.873C440.757 868.873 453.932 857.21 457.166 841.164C457.166 841.076 457.245 840.989 457.245 840.813C458.586 838.095 464.582 828.537 485.093 820.383H485.172C493.14 818.19 513.73 811.176 533.61 793.639C549.861 779.346 570.372 753.479 575.657 712.004C575.736 711.39 576.21 710.951 576.762 710.951H584.02C598.141 710.951 610.763 700.429 614.707 685.347C614.786 684.909 615.102 684.646 615.417 684.558C628.986 680.174 638.453 666.144 638.453 650.449V642.382C638.453 641.768 638.847 641.242 639.4 641.154C654.546 638.787 668.589 633.35 681.211 625.195C694.78 616.339 706.534 604.414 716.08 589.683C729.491 569.077 735.092 548.471 736.827 540.579V540.492C744.243 517.693 752.763 511.029 755.208 509.539C755.287 509.451 755.366 509.451 755.524 509.451C769.961 505.768 780.453 491.212 780.453 474.815C780.453 463.504 775.404 452.719 767.042 445.967C766.726 445.704 766.569 445.353 766.569 445.002V440.969H763.886C763.255 440.969 762.782 440.443 762.782 439.741V435.62H760.021C759.39 435.62 758.916 435.094 758.916 434.392V430.271H754.735C754.104 430.271 753.631 429.745 753.631 429.044C753.631 428.342 754.104 427.816 754.735 427.816H754.814V401.423H754.735C754.104 401.423 753.631 400.897 753.631 400.195V359.334C753.631 358.632 754.104 358.106 754.735 358.106H756.786V356.265H752.053C751.422 356.265 750.948 355.739 750.948 355.037V310.406L747.477 299.533C747.398 299.445 747.398 299.27 747.398 299.094V261.039C747.398 260.337 747.872 259.811 748.503 259.811H749.923L753.631 249.727V236.575H748.897C748.266 236.575 747.793 236.049 747.793 235.347V190.803C747.793 190.102 748.266 189.575 748.897 189.575H750.317L754.025 179.492V166.339H749.765C749.134 166.339 748.661 165.813 748.661 165.111V160.902L745.742 150.205C745.584 149.679 745.742 149.153 746.136 148.889C749.686 146.259 751.422 142.313 751.422 137.14C751.422 127.757 745.347 110.483 737.222 106.801C736.748 106.625 736.512 106.011 736.591 105.485C736.67 104.959 737.143 104.521 737.616 104.521H738.169C738.326 104.521 738.405 104.433 738.405 104.258V102.066C738.405 101.89 738.326 101.803 738.169 101.803H736.591C735.96 101.803 735.486 101.276 735.486 100.575V95.5769C735.486 95.0508 735.802 94.6123 736.196 94.437C737.301 93.9985 738.247 93.297 739.115 92.4202C742.113 89.0882 742.113 83.7394 739.115 80.4073C738.642 79.8812 738.168 79.4428 737.616 79.092C738.563 80.495 739.115 82.2487 739.115 84.0024C739.115 86.1945 738.326 88.299 736.906 89.8773C736.275 90.5788 735.565 91.1049 734.776 91.5433C732.252 92.8586 729.333 92.5079 727.203 90.6665C727.518 91.2803 727.913 91.8064 728.386 92.3325C729.491 93.5601 730.832 94.3493 732.252 94.7C732.725 94.7877 733.12 95.3138 733.12 95.8399V100.663C733.12 101.364 732.646 101.89 732.015 101.89H730.437C730.28 101.89 730.201 101.978 730.201 102.153V104.345C730.201 104.521 730.28 104.608 730.437 104.608H730.99C731.542 104.608 731.936 105.047 732.015 105.573C732.094 106.099 731.857 106.713 731.384 106.888C723.258 110.571 717.184 127.845 717.184 137.227C717.184 142.401 718.998 146.347 722.47 148.977C722.864 149.24 723.022 149.854 722.864 150.292L719.945 160.99V165.199C719.945 165.9 719.472 166.426 718.841 166.426H714.581V179.579L718.288 189.663H719.708C720.34 189.663 720.813 190.189 720.813 190.891V235.435C720.813 236.136 720.34 236.662 719.708 236.662H714.581V249.815L718.288 259.899H719.708C720.34 259.899 720.813 260.425 720.813 261.126V299.182C720.813 299.357 720.813 299.445 720.734 299.62L719.156 304.618C718.998 305.057 718.604 305.407 718.21 305.407C717.736 305.407 717.342 305.144 717.184 304.706C712.451 294.096 704.72 288.484 694.148 287.958C693.596 287.958 693.123 287.432 693.123 286.731V283.486C693.044 283.311 693.044 283.135 693.044 282.96C693.044 282.609 693.202 282.346 693.36 282.083C693.123 281.908 693.044 281.557 693.044 281.206C693.044 281.031 693.044 280.943 693.123 280.768L692.65 270.772L692.176 280.768C692.255 280.943 692.255 281.031 692.255 281.206C692.255 281.557 692.097 281.82 691.94 282.083C692.176 282.259 692.255 282.609 692.255 282.96C692.255 283.135 692.255 283.311 692.176 283.399V286.643C692.176 287.257 691.703 287.783 691.151 287.87C673.953 288.572 667.247 302.514 664.644 314.176C664.565 314.527 664.407 314.79 664.092 314.965C663.855 315.141 663.54 315.141 663.224 315.053C655.73 312.072 647.762 309.879 639.636 308.564C639.084 308.476 638.69 307.95 638.69 307.337V299.27C638.69 283.574 629.223 269.544 615.654 265.16C615.26 265.072 615.023 264.722 614.944 264.371C611 249.289 598.377 238.767 584.256 238.767H576.998C576.446 238.767 575.973 238.328 575.894 237.715C570.609 196.152 550.097 170.372 533.846 156.08C513.966 138.63 493.376 131.615 485.409 129.336H485.33C464.819 121.093 458.823 111.623 457.482 108.905C457.403 108.817 457.403 108.73 457.403 108.554C454.09 92.5079 440.994 80.8457 426.242 80.8457C411.49 80.8457 398.315 92.5079 395.081 108.554C395.081 108.642 395.002 108.73 395.002 108.905C393.661 111.623 387.665 121.181 367.154 129.336H367.075C359.107 131.528 338.517 138.543 318.637 155.992C302.386 170.285 281.875 196.152 276.59 237.627C276.511 238.241 276.037 238.679 275.485 238.679H268.227C254.106 238.679 241.484 249.201 237.54 264.283C237.461 264.722 237.145 264.985 236.83 265.072C223.261 269.457 213.794 283.486 213.794 299.182V307.249C213.794 307.863 213.4 308.389 212.847 308.476C202.671 310.055 192.81 313.124 183.737 317.42C183.422 317.596 183.106 317.508 182.791 317.42C182.475 317.245 182.317 316.982 182.239 316.631C179.872 303.917 173.324 288.66 155.259 287.958C154.706 287.958 154.233 287.432 154.233 286.731V283.486C154.154 283.311 154.154 283.135 154.154 283.048C154.154 282.697 154.312 282.434 154.47 282.171C154.233 281.996 154.154 281.645 154.154 281.294C154.154 281.119 154.154 281.031 154.233 280.856L153.76 270.86L153.286 280.856C153.365 281.031 153.365 281.119 153.365 281.294C153.365 281.645 153.207 281.908 153.05 282.171C153.286 282.346 153.365 282.697 153.365 283.048C153.365 283.223 153.365 283.399 153.286 283.574V286.818C153.286 287.432 152.813 287.958 152.261 288.046C141.69 288.572 133.959 294.184 129.225 304.794C129.067 305.232 128.594 305.495 128.2 305.495C127.805 305.495 127.411 305.144 127.253 304.706L125.675 299.708C125.596 299.62 125.596 299.445 125.596 299.27V261.214C125.596 260.513 126.07 259.987 126.701 259.987H128.121L131.829 249.903V236.75H126.701C126.07 236.75 125.596 236.224 125.596 235.522V190.978C125.596 190.277 126.07 189.751 126.701 189.751H128.121L131.829 179.667V166.514H127.569C126.937 166.514 126.464 165.988 126.464 165.287V161.078L123.545 150.38C123.387 149.854 123.545 149.328 123.94 149.065C127.49 146.434 129.225 142.488 129.225 137.315C129.225 127.933 123.151 110.659 115.025 106.976C114.552 106.801 114.315 106.187 114.394 105.661C114.473 105.135 114.946 104.696 115.42 104.696H115.972C116.13 104.696 116.209 104.608 116.209 104.433V102.241C116.209 102.066 116.13 101.978 115.972 101.978H114.394C113.763 101.978 113.29 101.452 113.29 100.75V95.9276C113.29 95.3138 113.684 94.8754 114.157 94.7877C115.656 94.437 116.997 93.6478 118.023 92.4202C118.496 91.8941 118.891 91.368 119.206 90.7542C116.997 92.5079 114.079 92.8586 111.633 91.631C110.844 91.1926 110.134 90.6665 109.503 89.965C108.083 88.3867 107.294 86.2822 107.294 84.0901C107.294 82.2487 107.846 80.5827 108.793 79.1797C108.241 79.5305 107.767 79.9689 107.294 80.495C104.296 83.8271 104.296 89.1758 107.294 92.5079C108.162 93.4724 109.109 94.0862 110.213 94.5246C110.686 94.7 110.923 95.1384 110.923 95.6645V100.838C110.923 101.539 110.45 102.066 109.819 102.066H108.241C108.083 102.066 108.004 102.153 108.004 102.329V104.521C108.004 104.696 108.083 104.784 108.241 104.784H108.793C109.345 104.784 109.74 105.222 109.819 105.748C109.897 106.274 109.661 106.888 109.187 107.064C101.062 110.746 94.9874 128.02 94.9874 137.403C94.9874 142.576 96.8019 146.522 100.273 149.153C100.667 149.416 100.825 150.029 100.667 150.468L97.7485 161.165V165.374C97.7485 166.076 97.2752 166.602 96.6441 166.602H92.3841V179.755L96.0919 189.838H97.5119C98.143 189.838 98.6163 190.365 98.6163 191.066V235.61C98.6163 236.312 98.143 236.838 97.5119 236.838H92.3841V249.99L96.0919 260.074H97.5119C98.143 260.074 98.6163 260.6 98.6163 261.302V299.357C98.6163 299.533 98.6163 299.62 98.5374 299.796L94.9085 310.406V355.213C94.9085 355.914 94.4352 356.44 93.8041 356.44H89.0708V358.282H91.1219C91.753 358.282 92.2263 358.808 92.2263 359.509V400.371C92.2263 401.072 91.753 401.598 91.1219 401.598H91.043V427.904H91.1219C91.753 427.904 92.2263 428.43 92.2263 429.131C92.2263 429.833 91.753 430.359 91.1219 430.359H86.9408V434.48C86.9408 435.182 86.4674 435.708 85.8363 435.708H83.0752V439.829C83.0752 440.53 82.6019 441.056 81.9708 441.056H79.2885V443.862H79.3674Z" fill="#BC9661"/>
</g>
<g opacity="0.5">
<path d="M153.76 248.851C153.444 248.851 153.129 248.763 152.971 248.5C152.734 248.237 152.655 247.974 152.655 247.623V246.483C152.655 245.869 153.129 245.343 153.76 245.343C154.312 245.343 154.785 245.869 154.864 246.483V247.623C154.864 247.974 154.785 248.237 154.549 248.5C154.312 248.675 153.996 248.851 153.76 248.851Z" fill="#BC9661"/>
</g>
<g opacity="0.5">
<path d="M692.571 248.851C692.255 248.851 691.94 248.763 691.782 248.5C691.545 248.237 691.466 247.974 691.466 247.623V246.483C691.466 245.869 691.94 245.343 692.571 245.343C693.123 245.343 693.596 245.869 693.675 246.483V247.623C693.675 247.974 693.596 248.237 693.36 248.5C693.202 248.675 692.886 248.851 692.571 248.851Z" fill="#BC9661"/>
</g>
<path d="M426.163 848.793C419.379 848.793 413.541 843.181 412.594 835.728C412.2 834.062 406.993 814.683 372.203 801.092C367.549 799.864 348.221 794.077 329.84 777.943C312.879 763.037 293.314 736.03 293.393 690.872H268.149C260.575 690.872 254.343 684.032 254.343 675.527V665.794H245.586C238.013 665.794 231.781 658.954 231.781 650.449V622.477C231.702 622.477 231.702 622.477 231.623 622.477C188.707 622.477 163.936 598.188 150.683 577.845C138.219 558.73 133.643 539.527 132.617 534.792C120.39 496.123 102.955 490.336 101.456 489.897C94.7508 488.757 89.7019 482.356 89.7019 474.815C89.7019 467.274 94.7508 460.786 101.456 459.733C102.955 459.295 120.39 453.508 132.617 414.839C133.643 410.104 138.219 390.988 150.683 371.785C163.936 351.442 188.707 327.153 231.623 327.153C231.702 327.153 231.702 327.153 231.781 327.153V299.182C231.781 290.764 237.934 283.837 245.586 283.837H254.343V274.104C254.343 265.686 260.496 258.759 268.149 258.759H293.393C293.314 213.601 312.879 186.594 329.84 171.688C348.221 155.466 367.549 149.766 372.203 148.539C406.914 134.947 412.2 115.569 412.594 113.903C413.62 106.45 419.379 100.838 426.163 100.838C432.947 100.838 438.785 106.45 439.732 113.903C440.126 115.569 445.333 134.947 480.123 148.539C484.777 149.766 504.105 155.554 522.486 171.688C539.447 186.594 559.012 213.601 558.933 258.759H584.177C591.751 258.759 597.983 265.598 597.983 274.104V283.837H606.74C614.313 283.837 620.545 290.676 620.545 299.182V327.153C620.624 327.153 620.624 327.153 620.703 327.153C663.619 327.153 688.39 351.442 701.643 371.785C714.107 390.901 718.683 410.104 719.709 414.839C731.936 453.508 749.371 459.295 750.87 459.733C757.575 460.873 762.624 467.274 762.624 474.815C762.624 482.356 757.575 488.845 750.87 489.897C749.371 490.336 731.936 496.123 719.709 534.792C718.683 539.527 714.107 558.73 701.643 577.845C688.39 598.188 663.619 622.477 620.703 622.477C620.624 622.477 620.545 622.477 620.545 622.477V650.449C620.545 658.867 614.392 665.794 606.74 665.794H597.983V675.527C597.983 683.945 591.83 690.872 584.177 690.872H558.933C559.012 736.03 539.447 763.037 522.486 777.943C504.105 794.165 484.777 799.864 480.123 801.092C445.333 814.683 440.126 834.062 439.732 835.728C438.785 843.181 433.026 848.793 426.163 848.793Z" fill="#BC9661"/>
<path d="M426.163 841.164C422.692 841.164 419.773 838.27 419.379 834.412C419.063 832.658 414.251 809.247 374.175 793.726C370.862 792.849 352.007 787.676 334.179 771.98C317.217 757.074 298.126 729.716 300.493 683.243H268.227C264.441 683.243 261.364 679.823 261.364 675.614V658.253H245.744C241.957 658.253 238.881 654.833 238.881 650.624V614.761C236.514 614.936 234.147 615.024 231.86 615.024C191.863 615.024 168.827 592.489 156.521 573.549C144.372 554.872 140.191 536.37 139.481 532.863C125.517 488.231 104.454 482.882 102.876 482.619C99.4052 482.181 96.8019 478.936 96.8019 475.078C96.8019 471.22 99.4052 467.976 102.876 467.537C104.454 467.187 125.517 461.838 139.481 417.294C140.191 413.786 144.372 395.285 156.521 376.608C168.827 357.668 191.863 335.133 231.86 335.133C234.147 335.133 236.514 335.22 238.881 335.396V299.533C238.881 295.324 241.957 291.904 245.744 291.904H261.364V274.542C261.364 270.333 264.441 266.914 268.227 266.914H300.493C298.126 220.441 317.217 193.17 334.179 178.176C352.007 162.481 370.862 157.22 374.175 156.43C414.33 140.91 419.142 117.498 419.379 115.744C419.773 111.886 422.692 108.993 426.163 108.993C429.634 108.993 432.553 111.886 432.947 115.744C433.263 117.498 438.075 140.91 478.151 156.43C481.464 157.307 500.319 162.481 518.147 178.176C535.109 193.083 554.2 220.441 551.833 266.914H584.098C587.885 266.914 590.962 270.333 590.962 274.542V291.904H606.582C610.368 291.904 613.445 295.324 613.445 299.533V335.396C615.812 335.22 618.179 335.133 620.466 335.133C660.463 335.133 683.499 357.668 695.805 376.608C707.954 395.285 712.135 413.786 712.845 417.294C726.808 461.926 747.872 467.274 749.45 467.537C752.921 467.976 755.524 471.22 755.524 475.078C755.524 478.936 752.921 482.181 749.45 482.619C747.872 482.97 726.808 488.319 712.845 532.863C712.135 536.37 707.954 554.872 695.805 573.549C683.499 592.489 660.463 614.936 620.466 615.024C618.179 615.024 615.812 614.936 613.445 614.761V650.624C613.445 654.833 610.368 658.253 606.582 658.253H591.12V675.614C591.12 679.823 588.043 683.243 584.256 683.243H551.991C554.357 729.716 535.266 756.986 518.305 771.98C500.476 787.676 481.622 792.937 478.309 793.726C438.154 809.247 433.342 832.658 433.105 834.412C432.553 838.27 429.634 841.164 426.163 841.164Z" fill="url(#paint0_linear_1_84)"/>
<path d="M706.376 419.135C706.376 419.135 690.677 332.853 606.74 343.551V299.357H584.177V274.279H544.417C553.963 180.982 476.415 163.533 476.415 163.533C430.028 145.733 426.242 116.621 426.242 116.621C426.242 116.621 422.376 145.733 376.069 163.533C376.069 163.533 298.442 180.982 308.066 274.279H268.306V299.357H245.744V343.551C161.727 332.853 145.95 419.135 145.95 419.135C129.935 470.694 103.744 474.903 103.744 474.903C103.744 474.903 129.935 479.2 145.95 530.671C145.95 530.671 161.649 616.953 245.586 606.255V650.449H268.149V675.527H307.909C298.363 768.824 375.911 786.273 375.911 786.273C422.297 804.073 426.084 833.185 426.084 833.185C426.084 833.185 429.95 804.073 476.257 786.273C476.257 786.273 553.884 768.824 544.26 675.527H584.02V650.449H606.582V606.255C690.52 616.865 706.219 530.671 706.219 530.671C722.233 479.112 748.424 474.903 748.424 474.903C748.424 474.903 722.391 470.606 706.376 419.135Z" fill="url(#paint1_linear_1_84)"/>
<path d="M493.76 546.627L490.915 549.789L493.76 552.951L496.605 549.789L493.76 546.627Z" fill="white"/>
<path d="M514.622 569.297L512.018 566.403L509.178 569.56L512.018 572.717L514.622 569.823L517.146 572.717L519.986 569.56L517.146 566.403L514.622 569.297Z" fill="white"/>
<path d="M586.253 558.599H584.123C579.626 558.512 577.575 556.232 575.603 551.76C573.315 546.587 570.002 539.572 559.588 545.184L561.718 550.094C567.793 546.85 568.818 548.954 571.185 554.215C571.658 555.355 572.684 557.197 573.63 558.599H552.646V546.674L547.676 548.428V563.071C547.676 567.456 546.177 568.596 542.312 569.122C541.996 569.209 541.286 569.209 540.576 569.297L541.602 574.207C547.992 573.769 552.33 571.051 552.567 563.773H591.065V533.609L586.095 535.363V558.599H586.253Z" fill="white"/>
<path d="M596.982 534.749V563.861H601.952V532.995L596.982 534.749Z" fill="white"/>
<path d="M540.26 561.405C540.97 557.898 541.523 551.585 537.894 548.253C536.316 546.85 534.186 546.324 532.214 546.85C530.557 547.2 528.348 548.428 526.692 552.023C525.666 554.303 524.877 556.407 524.325 557.986C524.246 558.336 523.93 558.599 523.536 558.599H517.856C518.172 557.635 518.172 556.846 518.172 555.881V546.587L513.202 548.34V556.758C513.202 557.196 513.202 557.986 512.965 558.512H506.102V546.587L501.132 548.34V561.756C501.132 566.842 498.844 568.946 494.742 568.946C490.482 568.946 488.43 566.14 488.43 561.756V554.04L483.46 555.443V562.721C483.46 571.138 489.693 574.12 494.742 574.12C500.737 574.12 505.549 570.262 506.023 563.685H525.745C526.455 563.685 527.165 563.334 527.638 562.633L528.033 562.019L536.474 564.65L539.945 562.37L540.26 561.405ZM535.843 559.038L529.847 557.196C530.163 556.32 530.557 555.443 530.952 554.478C531.346 553.514 532.135 552.374 533.239 552.111C533.87 551.935 534.58 552.198 534.896 552.461C535.922 553.338 536.237 555.881 535.843 559.038Z" fill="white"/>
<path d="M483.697 594.726C484.407 594.463 485.275 594.375 486.379 594.55C486.774 594.638 487.168 594.726 487.563 594.901C487.642 594.901 487.642 594.901 487.72 594.989C487.957 595.076 488.115 595.164 488.352 595.34C488.509 595.427 488.746 595.515 488.904 595.69C489.298 595.953 489.693 596.304 490.087 596.655C490.56 593.586 490.324 590.78 490.245 589.377C489.298 590.078 489.535 591.92 489.772 592.446C488.588 590.868 489.14 589.114 489.377 588.675C489.219 588.851 489.062 589.026 488.904 589.202C488.509 589.728 488.43 590.342 488.352 590.78C488.352 591.043 488.352 591.306 488.352 591.481C488.352 591.569 488.352 591.569 488.352 591.657C488.036 590.955 487.878 589.903 488.352 588.851C488.509 588.588 488.667 588.325 488.904 587.974C488.983 587.886 489.062 587.799 489.14 587.711C489.062 587.711 488.983 587.711 488.904 587.799C488.667 587.886 488.509 587.974 488.352 588.149C487.957 588.412 487.72 588.851 487.563 589.289C487.405 589.64 487.405 589.991 487.405 590.342C487.168 589.377 487.326 588.675 487.563 588.237C487.799 587.886 488.036 587.623 488.352 587.448C488.509 587.36 488.746 587.273 488.904 587.185C488.983 587.185 489.062 587.097 489.14 587.097C489.062 587.097 488.983 587.097 488.904 587.097C488.667 587.097 488.509 587.097 488.352 587.185C488.036 587.273 487.799 587.36 487.563 587.536C487.247 587.799 487.089 588.062 487.089 588.149C487.168 587.623 487.326 587.273 487.642 587.009C487.878 586.834 488.115 586.659 488.43 586.571C488.588 586.483 488.825 586.483 488.983 586.483C489.219 586.483 489.456 586.483 489.693 586.659C489.535 586.396 489.298 586.22 488.983 586.133C488.825 586.045 488.588 586.045 488.43 586.045C488.273 586.045 488.115 586.133 487.957 586.133C488.115 585.957 488.273 585.782 488.43 585.694C488.588 585.607 488.825 585.519 488.983 585.519C489.456 585.431 490.008 585.694 490.324 586.22C490.403 586.133 490.482 585.957 490.482 585.782C490.639 585.431 490.718 585.08 490.797 584.642C490.876 584.993 490.955 585.431 491.113 585.782C491.192 585.957 491.192 586.045 491.27 586.22C491.586 585.694 492.138 585.431 492.612 585.519C492.769 585.519 493.006 585.607 493.164 585.694C493.322 585.782 493.479 585.957 493.637 586.133C493.479 586.045 493.322 586.045 493.164 586.045C493.006 586.045 492.769 586.045 492.612 586.133C492.375 586.22 492.059 586.396 491.902 586.659C492.138 586.571 492.375 586.483 492.612 586.483C492.769 586.483 493.006 586.483 493.164 586.571C493.479 586.659 493.716 586.834 493.953 587.009C494.268 587.273 494.426 587.623 494.505 588.149C494.426 588.062 494.268 587.799 494.032 587.536C493.874 587.36 493.558 587.273 493.243 587.185C493.085 587.185 492.927 587.097 492.69 587.097C492.612 587.097 492.533 587.097 492.454 587.097C492.533 587.097 492.612 587.097 492.69 587.185C492.848 587.273 493.085 587.36 493.243 587.448C493.558 587.623 493.795 587.886 494.032 588.237C494.347 588.763 494.426 589.465 494.189 590.342C494.189 589.991 494.11 589.64 494.032 589.289C493.874 588.851 493.637 588.412 493.243 588.149C493.085 588.062 492.927 587.886 492.69 587.799C492.612 587.799 492.533 587.711 492.454 587.711C492.533 587.799 492.612 587.886 492.69 587.974C492.927 588.237 493.085 588.5 493.243 588.851C493.716 589.903 493.558 590.955 493.243 591.657C493.243 591.569 493.243 591.569 493.243 591.481C493.243 591.306 493.243 591.043 493.243 590.78C493.243 590.254 493.085 589.728 492.69 589.202C492.533 589.026 492.454 588.851 492.217 588.675C492.454 589.114 493.085 590.868 491.823 592.446C492.059 591.92 492.296 589.991 491.349 589.377C491.27 590.78 491.034 593.586 491.507 596.655C491.902 596.304 492.296 596.041 492.69 595.69C492.848 595.603 493.085 595.427 493.243 595.34C493.479 595.252 493.637 595.076 493.874 594.989C493.953 594.989 493.953 594.989 494.032 594.901C494.426 594.726 494.82 594.638 495.215 594.55C496.319 594.375 497.266 594.55 497.897 594.726C497.976 594.726 497.976 594.813 497.976 594.901C497.976 594.989 497.897 595.077 497.818 595.077C496.872 594.901 496.004 594.989 495.136 595.252C494.742 595.427 494.347 595.603 493.953 595.778C493.716 595.953 493.4 596.041 493.164 596.216C493.006 596.304 492.769 596.479 492.612 596.567C492.217 596.918 491.744 597.269 491.349 597.619C491.823 598.058 492.217 598.496 492.612 598.847C492.769 599.022 493.006 599.198 493.164 599.373C493.479 599.636 493.716 599.899 493.953 600.075C494.032 600.162 494.11 600.25 494.189 600.25C494.347 600.075 494.584 599.899 494.82 599.987C494.899 599.987 495.057 600.075 495.136 600.162C495.215 600.25 495.294 600.338 495.294 600.513C495.373 600.776 495.215 601.039 495.136 601.127C495.136 601.127 495.136 601.127 495.057 601.214C494.742 601.565 494.347 601.478 493.874 601.214C493.637 601.039 493.4 600.864 493.085 600.601C492.927 600.425 492.69 600.25 492.533 600.075C492.059 599.636 491.586 599.022 491.034 598.496C490.955 598.409 490.797 598.321 490.718 598.233C490.639 598.321 490.482 598.409 490.403 598.496C489.85 599.022 489.377 599.636 488.904 600.075C488.746 600.25 488.509 600.425 488.352 600.601C488.115 600.864 487.799 601.039 487.563 601.214C487.089 601.478 486.695 601.478 486.379 601.214C486.379 601.214 486.379 601.214 486.3 601.127C486.222 601.039 486.143 600.776 486.143 600.513C486.143 600.338 486.222 600.25 486.3 600.162C486.379 600.075 486.458 599.987 486.616 599.987C486.853 599.899 487.089 600.075 487.247 600.25C487.326 600.162 487.405 600.162 487.484 600.075C487.72 599.899 487.957 599.636 488.273 599.373C488.43 599.198 488.667 599.022 488.825 598.847C489.219 598.496 489.614 598.058 490.087 597.619C489.693 597.269 489.298 596.918 488.825 596.567C488.667 596.392 488.43 596.304 488.273 596.216C488.036 596.041 487.799 595.866 487.484 595.778C487.089 595.603 486.695 595.427 486.3 595.252C485.512 594.989 484.565 594.901 483.618 595.077C483.539 595.077 483.46 594.989 483.46 594.901C483.618 594.813 483.618 594.813 483.697 594.726Z" fill="#BC9661"/>
<path d="M501.999 584.467H501.605V601.39H501.999V584.467Z" fill="white"/>
<path d="M506.417 591.744C506.733 592.095 507.285 592.095 507.758 592.095C508.389 592.095 508.784 591.92 509.099 591.569C509.415 591.218 509.573 590.78 509.573 590.166V586.834H508.863V590.166C508.863 590.605 508.784 590.868 508.626 591.043C508.468 591.218 508.232 591.394 507.837 591.394C507.522 591.394 507.048 591.394 506.89 591.043C506.733 590.78 506.654 590.517 506.654 590.078C506.654 589.815 506.654 589.465 506.733 589.202C506.733 588.939 506.812 588.675 506.89 588.412H506.18C506.102 588.675 506.023 588.939 505.944 589.202C505.865 589.465 505.865 589.815 505.865 590.078C505.865 590.429 505.944 590.78 506.023 591.043C506.102 591.394 506.259 591.569 506.417 591.744Z" fill="#BC9661"/>
<path d="M507.679 586.571C507.837 586.571 507.916 586.483 507.995 586.396C508.074 586.308 508.074 586.22 508.074 586.045C508.074 585.87 508.074 585.782 507.995 585.694C507.916 585.606 507.837 585.519 507.679 585.519C507.522 585.519 507.443 585.519 507.364 585.606C507.285 585.694 507.285 585.782 507.285 585.957C507.285 586.133 507.285 586.22 507.364 586.308C507.443 586.483 507.522 586.571 507.679 586.571Z" fill="#BC9661"/>
<path d="M513.123 591.657C513.438 591.394 513.517 590.955 513.517 590.429V586.571H512.57C512.176 586.571 511.86 586.659 511.545 586.834C511.229 587.009 510.993 587.185 510.835 587.536C510.677 587.799 510.598 588.149 510.598 588.588C510.598 589.114 510.756 589.552 510.993 589.903C511.229 590.166 511.624 590.341 512.097 590.341H512.728V590.517C512.728 590.78 512.649 591.043 512.492 591.218C512.334 591.394 512.097 591.481 511.782 591.481C511.624 591.481 511.466 591.481 511.308 591.394C511.15 591.306 510.993 591.306 510.835 591.218L510.519 591.832C510.677 591.92 510.914 592.095 511.15 592.095C511.387 592.183 511.624 592.183 511.86 592.183C512.413 592.095 512.807 591.92 513.123 591.657ZM512.255 589.552C511.939 589.552 511.782 589.465 511.624 589.289C511.466 589.114 511.387 588.851 511.387 588.5C511.387 588.149 511.466 587.799 511.703 587.623C511.939 587.448 512.176 587.273 512.57 587.273H512.807V589.552H512.255Z" fill="#BC9661"/>
<path d="M516.12 585.87C516.278 585.87 516.357 585.87 516.515 585.782C516.594 585.782 516.752 585.782 516.83 585.782V585.431C516.83 585.431 516.752 585.431 516.673 585.431C516.594 585.431 516.515 585.431 516.436 585.431C516.357 585.431 516.278 585.431 516.199 585.431H516.12C516.042 585.431 516.042 585.343 515.963 585.256C515.963 585.168 515.884 585.08 515.884 584.993C515.884 584.905 515.884 584.817 515.963 584.73C516.042 584.642 516.12 584.642 516.199 584.642C516.278 584.642 516.357 584.642 516.357 584.642C516.436 584.642 516.436 584.642 516.515 584.73L516.594 584.379C516.436 584.291 516.278 584.291 516.12 584.291C515.884 584.291 515.726 584.379 515.568 584.467C515.41 584.554 515.41 584.73 515.41 584.993C515.41 585.08 515.41 585.168 515.489 585.256C515.568 585.343 515.568 585.431 515.647 585.431L515.332 585.519V585.87C515.41 585.87 515.489 585.87 515.647 585.782C515.805 585.87 515.963 585.87 516.12 585.87Z" fill="#BC9661"/>
<path d="M523.299 585.87C523.457 585.87 523.536 585.782 523.615 585.694C523.694 585.607 523.694 585.519 523.694 585.343C523.694 585.168 523.694 585.08 523.615 584.993C523.536 584.905 523.457 584.905 523.299 584.905C523.22 584.905 523.063 584.905 522.984 584.993C522.905 585.08 522.905 585.168 522.905 585.343C522.905 585.519 522.905 585.607 522.984 585.694C523.063 585.782 523.142 585.87 523.299 585.87Z" fill="#BC9661"/>
<path d="M524.009 585.343C524.009 585.519 524.009 585.607 524.088 585.694C524.167 585.782 524.246 585.782 524.404 585.782C524.562 585.782 524.64 585.694 524.719 585.607C524.798 585.519 524.798 585.431 524.798 585.256C524.798 585.08 524.798 584.993 524.719 584.905C524.64 584.817 524.562 584.817 524.404 584.817C524.246 584.817 524.167 584.817 524.088 584.905C524.088 585.08 524.009 585.168 524.009 585.343Z" fill="#BC9661"/>
<path d="M523.852 584.73C523.93 584.73 524.009 584.73 524.088 584.642C524.167 584.554 524.167 584.467 524.167 584.291C524.167 584.116 524.167 584.028 524.088 583.941C524.009 583.853 523.93 583.853 523.852 583.853C523.773 583.853 523.694 583.853 523.615 583.941C523.536 584.028 523.536 584.116 523.536 584.291C523.536 584.467 523.536 584.554 523.615 584.642C523.694 584.73 523.773 584.73 523.852 584.73Z" fill="#BC9661"/>
<path d="M529.137 586.571H528.427V589.552H526.297V586.571H525.587V589.552H525.193C525.035 589.552 524.798 589.552 524.719 589.465C524.562 589.377 524.483 589.202 524.325 589.026C524.325 588.939 524.325 588.939 524.325 588.851C524.325 588.763 524.325 588.763 524.325 588.675V587.097H523.615V588.588C523.615 588.851 523.536 589.114 523.457 589.202C523.378 589.377 523.142 589.465 522.984 589.465H522.274V587.097H521.564V589.465H517.698V586.483H516.752C516.357 586.483 516.042 586.571 515.726 586.746C515.41 586.922 515.174 587.097 515.016 587.448C514.858 587.711 514.779 588.062 514.779 588.5C514.779 588.851 514.858 589.202 514.937 589.465C515.016 589.728 515.253 589.903 515.489 590.078C515.726 590.254 515.963 590.254 516.278 590.254H516.909V590.429C516.909 590.692 516.83 590.955 516.673 591.131C516.515 591.306 516.278 591.394 515.963 591.394C515.805 591.394 515.647 591.394 515.489 591.306C515.332 591.218 515.174 591.218 515.016 591.131L514.7 591.744C514.858 591.832 515.095 592.008 515.332 592.008C515.568 592.095 515.805 592.095 516.042 592.095C516.357 592.095 516.673 592.008 516.909 591.92C517.146 591.832 517.304 591.569 517.462 591.394C517.619 591.131 517.619 590.868 517.619 590.517V590.342H522.984C523.22 590.342 523.457 590.254 523.615 590.166C523.773 590.078 523.93 589.903 524.009 589.728C524.167 589.903 524.325 590.078 524.562 590.166C524.719 590.254 524.956 590.254 525.114 590.254H529.137V586.571ZM516.83 589.552H516.278C515.963 589.552 515.805 589.465 515.647 589.289C515.489 589.114 515.41 588.851 515.41 588.5C515.41 588.149 515.489 587.799 515.726 587.623C515.963 587.448 516.199 587.273 516.594 587.273H516.83V589.552Z" fill="#BC9661"/>
<path d="M528.348 591.043C528.269 591.131 528.269 591.218 528.269 591.394C528.269 591.569 528.269 591.657 528.348 591.744C528.427 591.832 528.506 591.832 528.664 591.832C528.822 591.832 528.9 591.744 528.979 591.657C529.058 591.569 529.058 591.481 529.058 591.306C529.058 591.131 529.058 591.043 528.979 590.955C528.9 590.868 528.822 590.868 528.664 590.868C528.585 590.955 528.427 590.955 528.348 591.043Z" fill="#BC9661"/>
<path d="M532.608 585.519C532.766 585.519 532.845 585.519 532.924 585.431C533.003 585.343 533.003 585.256 533.003 585.08C533.003 584.905 533.003 584.817 532.924 584.73C532.845 584.642 532.766 584.642 532.608 584.642C532.529 584.642 532.372 584.642 532.293 584.73C532.214 584.817 532.214 584.905 532.214 585.08C532.214 585.256 532.214 585.343 532.293 585.431C532.372 585.431 532.45 585.519 532.608 585.519Z" fill="#BC9661"/>
<path d="M531.977 590.078C532.214 590.254 532.608 590.254 532.924 590.254H537.42V586.571H536.71V589.552H534.107V586.571H533.397H533.003C532.608 586.571 532.293 586.659 531.977 586.834C531.662 587.009 531.504 587.185 531.346 587.448C531.188 587.711 531.109 588.062 531.109 588.5C531.109 588.851 531.188 589.202 531.346 589.465C531.504 589.728 531.74 589.903 531.977 590.078ZM532.214 587.536C532.45 587.36 532.687 587.185 533.082 587.185H533.397V589.465H533.003C532.687 589.465 532.372 589.377 532.214 589.202C532.056 589.026 531.898 588.763 531.898 588.412C531.898 588.062 531.977 587.799 532.214 587.536Z" fill="#BC9661"/>
<path d="M533.792 585.519C533.949 585.519 534.028 585.431 534.107 585.343C534.186 585.256 534.186 585.168 534.186 584.993C534.186 584.817 534.186 584.73 534.107 584.642C534.028 584.554 533.949 584.467 533.792 584.467C533.634 584.467 533.555 584.467 533.476 584.554C533.397 584.642 533.397 584.73 533.397 584.905C533.397 585.08 533.397 585.168 533.476 585.256C533.555 585.431 533.634 585.519 533.792 585.519Z" fill="#BC9661"/>
<path d="M535.685 591.043C535.606 591.131 535.606 591.218 535.606 591.394C535.606 591.569 535.606 591.657 535.685 591.744C535.764 591.832 535.843 591.832 536 591.832C536.158 591.832 536.237 591.832 536.316 591.744C536.395 591.657 536.395 591.569 536.395 591.394C536.395 591.218 536.395 591.131 536.316 591.043C536.237 590.955 536.158 590.955 536 590.955C535.843 590.955 535.764 590.955 535.685 591.043Z" fill="#BC9661"/>
<path d="M537.105 590.955C536.947 590.955 536.868 590.955 536.789 591.043C536.71 591.131 536.71 591.218 536.71 591.394C536.71 591.569 536.71 591.657 536.789 591.744C536.868 591.832 536.947 591.832 537.105 591.832C537.263 591.832 537.342 591.744 537.42 591.657C537.499 591.569 537.499 591.481 537.499 591.306C537.499 591.131 537.499 591.043 537.42 590.955C537.342 590.955 537.263 590.955 537.105 590.955Z" fill="#BC9661"/>
<path d="M544.284 585.87C544.442 585.87 544.52 585.782 544.599 585.694C544.678 585.607 544.678 585.519 544.678 585.343C544.678 585.168 544.678 585.08 544.599 584.993C544.52 584.905 544.442 584.905 544.284 584.905C544.126 584.905 544.047 584.905 543.968 584.993C543.889 585.08 543.889 585.168 543.889 585.343C543.889 585.519 543.889 585.607 543.968 585.694C544.047 585.782 544.126 585.87 544.284 585.87Z" fill="#BC9661"/>
<path d="M554.382 590.254V584.467H553.672V589.552H551.936V584.467H551.147V589.552H549.096C548.938 589.552 548.859 589.552 548.702 589.552C548.623 589.552 548.465 589.465 548.386 589.465C548.623 589.289 548.859 589.026 549.017 588.763C549.175 588.5 549.333 588.237 549.412 587.886C549.49 587.536 549.569 587.185 549.569 586.834C549.333 586.659 549.096 586.571 548.78 586.483C548.465 586.396 548.228 586.308 547.913 586.308C547.676 586.308 547.518 586.308 547.282 586.396C547.045 586.483 546.887 586.571 546.65 586.659C546.414 586.746 546.256 586.922 546.098 587.097C546.177 587.36 546.256 587.623 546.335 587.974C546.414 588.325 546.572 588.588 546.808 588.851C546.887 588.939 546.966 589.114 547.045 589.202C547.124 589.289 547.203 589.377 547.282 589.465C547.203 589.552 547.045 589.552 546.966 589.552C546.808 589.552 546.729 589.552 546.572 589.552H544.678V586.571H543.968V589.552H539.629V584.467H538.919V590.254H546.729C546.966 590.254 547.124 590.254 547.36 590.166C547.597 590.078 547.755 589.991 547.992 589.903C548.149 589.991 548.386 590.166 548.623 590.166C548.859 590.254 549.096 590.254 549.254 590.254H554.382ZM547.913 589.026C547.755 588.939 547.597 588.763 547.518 588.588C547.36 588.412 547.282 588.237 547.203 588.062C547.124 587.886 547.045 587.623 546.966 587.448C547.045 587.36 547.203 587.273 547.282 587.273C547.36 587.185 547.518 587.185 547.676 587.097C547.834 587.097 547.913 587.01 548.07 587.01C548.228 587.01 548.386 587.009 548.544 587.097C548.702 587.097 548.859 587.185 549.017 587.273C549.017 587.623 548.938 587.974 548.702 588.325C548.465 588.5 548.228 588.763 547.913 589.026Z" fill="#BC9661"/>
<path d="M557.853 585.519C558.01 585.519 558.089 585.519 558.168 585.431C558.247 585.343 558.247 585.256 558.247 585.08C558.247 584.905 558.247 584.817 558.168 584.73C558.089 584.642 558.01 584.642 557.853 584.642C557.774 584.642 557.616 584.642 557.537 584.73C557.458 584.817 557.458 584.905 557.458 585.08C557.458 585.256 557.458 585.343 557.537 585.431C557.616 585.431 557.774 585.519 557.853 585.519Z" fill="#BC9661"/>
<path d="M559.036 585.519C559.194 585.519 559.273 585.431 559.352 585.343C559.43 585.256 559.43 585.168 559.43 584.993C559.43 584.817 559.43 584.73 559.352 584.642C559.273 584.554 559.194 584.467 559.036 584.467C558.878 584.467 558.799 584.467 558.72 584.554C558.642 584.642 558.642 584.73 558.642 584.905C558.642 585.08 558.642 585.168 558.72 585.256C558.799 585.431 558.878 585.519 559.036 585.519Z" fill="#BC9661"/>
<path d="M577.812 589.552H575.05C574.893 589.552 574.814 589.552 574.656 589.552C574.498 589.552 574.419 589.465 574.34 589.465C574.577 589.289 574.814 589.026 574.972 588.763C575.129 588.5 575.287 588.237 575.366 587.886C575.445 587.536 575.524 587.185 575.524 586.834C575.287 586.659 575.05 586.571 574.735 586.483C574.419 586.396 574.183 586.308 573.867 586.308C573.63 586.308 573.473 586.308 573.236 586.396C572.999 586.483 572.842 586.571 572.605 586.659C572.368 586.746 572.21 586.922 572.053 587.097C572.132 587.36 572.21 587.623 572.289 587.974C572.368 588.325 572.526 588.588 572.763 588.851C572.842 588.939 572.92 589.114 572.999 589.202C573.078 589.289 573.157 589.377 573.236 589.465C573.157 589.552 572.999 589.552 572.92 589.552C572.763 589.552 572.684 589.552 572.526 589.552H568.976V584.467H568.266V590.254H572.605C572.842 590.254 572.999 590.254 573.236 590.166C573.473 590.078 573.63 589.991 573.867 589.903C574.025 589.991 574.262 590.166 574.498 590.166C574.735 590.254 574.972 590.254 575.129 590.254H578.679V584.467H577.969V589.552H577.812ZM573.709 589.026C573.552 588.939 573.394 588.763 573.315 588.588C573.157 588.412 573.078 588.237 572.999 588.062C572.92 587.886 572.842 587.623 572.763 587.448C572.842 587.36 572.999 587.273 573.078 587.273C573.157 587.185 573.315 587.185 573.473 587.097C573.63 587.097 573.709 587.01 573.867 587.01C574.025 587.01 574.183 587.009 574.34 587.097C574.498 587.097 574.656 587.185 574.814 587.273C574.814 587.623 574.735 587.974 574.498 588.325C574.262 588.5 574.025 588.763 573.709 589.026Z" fill="#BC9661"/>
<path d="M580.336 584.467H579.626V590.254H580.336V584.467Z" fill="#BC9661"/>
<path d="M583.255 590.078C583.492 590.254 583.886 590.254 584.202 590.254H599.979V584.467H599.269V589.552H597.613V588.062C597.613 587.185 597.376 586.571 596.982 586.133C596.587 585.694 595.956 585.431 595.167 585.431C595.009 585.431 594.773 585.431 594.615 585.431C594.457 585.431 594.299 585.519 594.063 585.519C593.905 585.519 593.747 585.607 593.589 585.694L593.747 586.396C593.984 586.308 594.22 586.22 594.378 586.22C594.536 586.22 594.852 586.133 595.088 586.133C595.64 586.133 596.114 586.308 596.35 586.659C596.666 587.009 596.745 587.536 596.745 588.149V589.64H595.877V588.588C595.877 588.237 595.798 587.974 595.719 587.711C595.64 587.448 595.483 587.273 595.246 587.185C595.009 587.097 594.773 587.01 594.457 587.01C594.22 587.01 593.984 587.097 593.747 587.185C593.51 587.36 593.353 587.536 593.195 587.711C593.037 587.974 593.037 588.237 593.037 588.588C593.037 588.851 593.037 589.026 593.116 589.202C593.195 589.377 593.274 589.552 593.432 589.64H591.459V586.659H590.749V589.64H588.54V586.659H587.83V589.64H585.385V586.659H584.675H584.28C583.886 586.659 583.57 586.746 583.255 586.922C582.939 587.097 582.782 587.273 582.624 587.536C582.466 587.799 582.387 588.149 582.387 588.588C582.387 588.939 582.466 589.289 582.624 589.552C582.782 589.728 583.018 589.903 583.255 590.078ZM594.063 587.886C594.142 587.711 594.378 587.623 594.536 587.623C594.773 587.623 594.93 587.711 595.009 587.886C595.088 588.062 595.167 588.325 595.167 588.588V589.552H594.694C594.536 589.552 594.378 589.552 594.22 589.465C594.063 589.377 593.984 589.289 593.905 589.114C593.826 588.939 593.826 588.763 593.826 588.588C593.905 588.237 593.984 588.062 594.063 587.886ZM583.492 587.536C583.728 587.36 583.965 587.185 584.359 587.185H584.675V589.465H584.28C583.965 589.465 583.649 589.377 583.492 589.202C583.334 589.026 583.176 588.763 583.176 588.412C583.176 588.062 583.334 587.799 583.492 587.536Z" fill="#BC9661"/>
<path d="M585.069 585.519C585.227 585.519 585.306 585.431 585.385 585.343C585.464 585.256 585.464 585.168 585.464 584.993C585.464 584.817 585.464 584.73 585.385 584.642C585.306 584.554 585.227 584.467 585.069 584.467C584.912 584.467 584.833 584.467 584.754 584.554C584.675 584.642 584.675 584.73 584.675 584.905C584.675 585.08 584.675 585.168 584.754 585.256C584.833 585.431 584.912 585.519 585.069 585.519Z" fill="#BC9661"/>
<path d="M583.886 585.519C584.044 585.519 584.123 585.519 584.202 585.431C584.28 585.343 584.28 585.256 584.28 585.08C584.28 584.905 584.28 584.817 584.202 584.73C584.123 584.642 584.044 584.642 583.886 584.642C583.807 584.642 583.649 584.642 583.57 584.73C583.492 584.817 583.492 584.905 583.492 585.08C583.492 585.256 583.492 585.343 583.57 585.431C583.649 585.431 583.807 585.519 583.886 585.519Z" fill="#BC9661"/>
<path d="M588.225 585.782C588.383 585.782 588.462 585.782 588.619 585.694C588.698 585.694 588.856 585.694 588.935 585.694V585.343C588.935 585.343 588.856 585.343 588.777 585.343C588.698 585.343 588.619 585.343 588.54 585.343C588.462 585.343 588.383 585.343 588.304 585.343H588.225C588.146 585.343 588.146 585.256 588.067 585.168C588.067 585.08 587.988 585.08 587.988 584.993C587.988 584.905 587.988 584.73 588.067 584.73C588.146 584.642 588.225 584.642 588.304 584.642C588.383 584.642 588.462 584.642 588.462 584.642C588.54 584.642 588.54 584.642 588.619 584.73L588.698 584.379C588.54 584.291 588.383 584.291 588.225 584.291C587.988 584.291 587.83 584.379 587.673 584.467C587.515 584.554 587.515 584.73 587.515 584.993C587.515 585.08 587.515 585.168 587.594 585.256C587.673 585.343 587.673 585.431 587.752 585.431L587.436 585.519V585.87C587.515 585.87 587.594 585.87 587.752 585.782C587.988 585.782 588.067 585.782 588.225 585.782Z" fill="#BC9661"/>
<path d="M591.538 591.043C591.459 591.131 591.459 591.218 591.459 591.394C591.459 591.569 591.459 591.657 591.538 591.744C591.617 591.832 591.696 591.832 591.854 591.832C592.012 591.832 592.09 591.744 592.169 591.657C592.248 591.569 592.248 591.481 592.248 591.306C592.248 591.131 592.248 591.043 592.169 590.955C592.09 590.868 592.012 590.78 591.854 590.78C591.696 590.955 591.617 590.955 591.538 591.043Z" fill="#BC9661"/>
<path d="M590.355 591.043C590.276 591.131 590.276 591.218 590.276 591.394C590.276 591.569 590.276 591.657 590.355 591.744C590.434 591.832 590.513 591.832 590.67 591.832C590.828 591.832 590.907 591.832 590.986 591.744C591.065 591.657 591.065 591.569 591.065 591.394C591.065 591.218 591.065 591.131 590.986 591.043C590.907 590.955 590.828 590.955 590.67 590.955C590.513 590.955 590.434 590.955 590.355 591.043Z" fill="#BC9661"/>
<path d="M601.873 584.467H601.163V590.254H601.873V584.467Z" fill="#BC9661"/>
<path d="M507.443 602.179C507.364 602.179 507.206 602.179 507.127 602.267C507.048 602.354 507.048 602.442 507.048 602.617C507.048 602.793 507.048 602.881 507.127 602.968C507.206 603.056 507.285 603.056 507.443 603.056C507.6 603.056 507.679 603.056 507.758 602.968C507.837 602.881 507.837 602.793 507.837 602.617C507.837 602.442 507.837 602.354 507.758 602.267C507.679 602.179 507.522 602.179 507.443 602.179Z" fill="#BC9661"/>
<path d="M508.626 602.179C508.468 602.179 508.389 602.179 508.31 602.267C508.232 602.354 508.232 602.442 508.232 602.617C508.232 602.793 508.232 602.881 508.31 602.968C508.389 603.056 508.468 603.056 508.626 603.056C508.784 603.056 508.863 602.968 508.942 602.88C509.02 602.793 509.02 602.705 509.02 602.53C509.02 602.354 509.02 602.267 508.942 602.179C508.863 602.179 508.705 602.179 508.626 602.179Z" fill="#BC9661"/>
<path d="M518.25 600.338C518.093 600.338 518.014 600.338 517.935 600.425C517.856 600.513 517.856 600.601 517.856 600.776C517.856 600.951 517.856 601.039 517.935 601.127C518.014 601.214 518.093 601.214 518.25 601.214C518.408 601.214 518.487 601.127 518.566 601.039C518.645 600.951 518.645 600.864 518.645 600.688C518.645 600.513 518.645 600.425 518.566 600.338C518.487 600.425 518.329 600.338 518.25 600.338Z" fill="#BC9661"/>
<path d="M520.933 595.252C521.09 595.252 521.169 595.164 521.248 595.077C521.327 594.989 521.327 594.901 521.327 594.726C521.327 594.55 521.327 594.463 521.248 594.375C521.169 594.287 521.09 594.287 520.933 594.287C520.775 594.287 520.696 594.287 520.617 594.375C520.538 594.463 520.538 594.55 520.538 594.726C520.538 594.901 520.538 594.989 520.617 595.077C520.775 595.252 520.854 595.252 520.933 595.252Z" fill="#BC9661"/>
<path d="M523.063 598.935H521.327V595.953H520.617V598.935H518.645V595.953H517.935V598.935H514.622V595.953H513.675C513.28 595.953 512.965 596.041 512.649 596.216C512.334 596.392 512.097 596.567 511.939 596.918C511.782 597.181 511.703 597.532 511.703 597.97C511.703 598.321 511.782 598.672 511.86 598.935C511.939 599.198 512.176 599.373 512.413 599.548C512.649 599.724 512.886 599.724 513.202 599.724H513.833V599.899C513.833 600.162 513.754 600.425 513.596 600.601C513.438 600.776 513.202 600.864 512.886 600.864C512.728 600.864 512.57 600.864 512.413 600.776C512.255 600.688 512.097 600.688 511.939 600.601L511.624 601.214C511.782 601.302 512.018 601.478 512.255 601.478C512.492 601.565 512.728 601.565 512.965 601.565C513.28 601.565 513.596 601.478 513.833 601.39C514.069 601.302 514.227 601.039 514.385 600.864C514.543 600.601 514.543 600.338 514.543 599.987V599.811H523.773V594.024H523.063V598.935ZM513.912 598.935H513.28C512.965 598.935 512.807 598.847 512.649 598.672C512.492 598.496 512.413 598.233 512.413 597.882C512.413 597.532 512.492 597.181 512.728 597.006C512.965 596.83 513.202 596.655 513.596 596.655H513.833L513.912 598.935Z" fill="#BC9661"/>
<path d="M525.666 593.937H524.956V599.724H525.666V593.937Z" fill="#BC9661"/>
<path d="M551.305 593.937H550.595V599.724H551.305V593.937Z" fill="#BC9661"/>
<path d="M553.435 596.216C553.119 596.392 552.883 596.567 552.725 596.918C552.567 597.181 552.488 597.532 552.488 597.97C552.488 598.496 552.646 598.935 552.883 599.285C553.119 599.548 553.514 599.724 553.987 599.724H554.618V599.899C554.618 600.162 554.539 600.425 554.382 600.601C554.224 600.776 553.987 600.864 553.672 600.864C553.514 600.864 553.356 600.864 553.198 600.776C553.04 600.688 552.883 600.688 552.725 600.601L552.409 601.214C552.567 601.302 552.804 601.478 553.04 601.478C553.277 601.565 553.514 601.565 553.75 601.565C554.303 601.565 554.697 601.39 554.934 601.127C555.249 600.864 555.328 600.425 555.328 599.899V596.041H554.382C554.145 595.953 553.75 596.041 553.435 596.216ZM554.697 598.935H554.145C553.829 598.935 553.672 598.847 553.514 598.672C553.356 598.496 553.277 598.233 553.277 597.882C553.277 597.532 553.356 597.181 553.593 597.006C553.829 596.83 554.066 596.655 554.46 596.655H554.697V598.935Z" fill="#BC9661"/>
<path d="M563.612 593.937H562.902V599.724H563.612V593.937Z" fill="#BC9661"/>
<path d="M574.498 598.935H572.605C572.526 598.847 572.447 598.759 572.368 598.584C572.289 598.409 572.289 598.233 572.21 598.058C572.132 597.882 572.132 597.619 572.053 597.356C571.974 597.093 571.974 596.83 571.895 596.655C571.816 596.479 571.737 596.304 571.658 596.216C571.579 596.129 571.422 596.041 571.343 595.953C571.264 595.866 571.185 595.866 571.027 595.866C570.948 595.866 570.79 595.866 570.633 595.866C570.396 595.866 570.159 595.866 570.002 595.953C569.765 596.041 569.607 596.129 569.37 596.216L569.607 596.83C569.765 596.743 569.923 596.655 570.08 596.567C570.238 596.479 570.396 596.479 570.554 596.479C570.712 596.479 570.79 596.479 570.869 596.567C570.948 596.567 571.027 596.655 571.106 596.743C571.185 596.83 571.264 596.918 571.264 597.093C571.343 597.269 571.343 597.444 571.343 597.619C571.343 597.882 571.422 598.058 571.5 598.233C571.579 598.409 571.579 598.584 571.658 598.672C571.737 598.759 571.737 598.847 571.816 598.935H566.136V595.953H565.426V599.812C565.426 600.075 565.347 600.338 565.268 600.513C565.189 600.688 565.032 600.776 564.795 600.776C564.716 600.776 564.637 600.776 564.558 600.776C564.479 600.776 564.4 600.688 564.243 600.688L564.006 601.302C564.164 601.39 564.322 601.478 564.479 601.478C564.637 601.478 564.795 601.565 564.953 601.565C565.189 601.565 565.426 601.478 565.663 601.39C565.82 601.214 565.978 601.039 566.136 600.776C566.215 600.513 566.294 600.25 566.294 599.899V599.724H575.366V593.937H574.656V598.935H574.498Z" fill="#BC9661"/>
<path d="M577.102 593.937H576.392V599.724H577.102V593.937Z" fill="#BC9661"/>
<path d="M585.069 600.338C584.912 600.338 584.833 600.338 584.754 600.425C584.675 600.513 584.675 600.601 584.675 600.776C584.675 600.951 584.675 601.039 584.754 601.127C584.833 601.214 584.912 601.214 585.069 601.214C585.227 601.214 585.306 601.127 585.385 601.039C585.464 600.951 585.464 600.864 585.464 600.688C585.464 600.513 585.464 600.425 585.385 600.338C585.227 600.425 585.148 600.338 585.069 600.338Z" fill="#BC9661"/>
<path d="M534.107 600.338C533.949 600.338 533.87 600.338 533.792 600.425C533.713 600.513 533.713 600.601 533.713 600.776C533.713 600.951 533.713 601.039 533.792 601.127C533.87 601.214 533.949 601.214 534.107 601.214C534.265 601.214 534.344 601.127 534.423 601.039C534.502 600.951 534.502 600.864 534.502 600.688C534.502 600.513 534.502 600.425 534.423 600.338C534.265 600.425 534.186 600.338 534.107 600.338Z" fill="#BC9661"/>
<path d="M601.873 593.937H601.163V599.724H601.873V593.937Z" fill="#BC9661"/>
<path d="M560.14 595.866C559.509 595.866 558.642 596.392 558.642 597.619V598.847C558.168 598.847 557.537 599.022 557.537 600.075V602.004H558.247V600.162C558.247 599.987 558.326 599.812 558.405 599.724C558.484 599.636 558.642 599.548 558.799 599.548H560.062C561.324 599.548 561.718 598.409 561.718 597.619C561.639 596.743 561.166 595.866 560.14 595.866ZM559.825 598.847H559.352V597.795C559.352 597.269 559.588 596.567 560.14 596.567C560.456 596.567 560.929 596.83 560.929 597.707C560.85 598.584 560.377 598.847 559.825 598.847Z" fill="#BC9661"/>
<path d="M564.874 590.254C566.136 590.254 566.53 589.114 566.53 588.325C566.53 587.974 566.452 587.711 566.373 587.448C566.215 587.185 566.057 587.009 565.82 586.834C565.742 586.746 565.584 586.746 565.426 586.659C565.268 586.659 565.189 586.571 565.032 586.571C564.322 586.571 563.533 587.097 563.533 588.325V589.552H559.352V586.571H558.642H558.247C557.853 586.571 557.537 586.659 557.222 586.834C556.906 587.009 556.748 587.185 556.59 587.448C556.433 587.711 556.354 588.062 556.354 588.5C556.354 588.851 556.433 589.202 556.59 589.465C556.748 589.728 556.906 589.903 557.222 590.078C557.458 590.254 557.853 590.254 558.168 590.254H564.874ZM564.322 588.5C564.322 587.974 564.558 587.273 565.11 587.273C565.347 587.273 565.505 587.36 565.663 587.536C565.82 587.711 565.899 587.974 565.899 588.237C565.899 588.5 565.899 588.675 565.82 588.939C565.742 589.114 565.663 589.289 565.505 589.377C565.347 589.465 565.189 589.552 565.032 589.552H564.479V588.5H564.322ZM558.72 589.552H558.247C557.932 589.552 557.616 589.465 557.458 589.289C557.3 589.114 557.143 588.851 557.143 588.5C557.143 588.149 557.222 587.799 557.458 587.623C557.695 587.448 557.932 587.273 558.326 587.273H558.642L558.72 589.552Z" fill="#BC9661"/>
<path d="M599.269 598.935H598.165C598.007 598.935 597.849 598.935 597.692 598.847C597.613 598.759 597.455 598.672 597.376 598.584C597.455 598.321 597.534 597.97 597.534 597.707C597.534 597.356 597.455 597.093 597.376 596.83C597.218 596.567 597.06 596.392 596.824 596.216C596.745 596.129 596.587 596.129 596.429 596.041C596.272 596.041 596.193 595.953 596.035 595.953C595.325 595.953 594.536 596.479 594.536 597.707V598.935H593.037V595.953H592.327V598.935H591.933C591.775 598.935 591.538 598.935 591.459 598.847C591.302 598.759 591.223 598.672 591.065 598.409C591.065 598.409 591.065 598.321 591.065 598.233V596.129H590.355V598.058C590.355 598.321 590.276 598.584 590.197 598.672C590.039 598.847 589.882 598.935 589.724 598.935H589.014V596.129H588.304V598.935H586.963C586.884 598.847 586.805 598.759 586.805 598.584C586.726 598.409 586.726 598.233 586.647 598.058C586.568 597.882 586.568 597.619 586.489 597.356C586.41 597.093 586.41 596.83 586.332 596.655C586.253 596.479 586.174 596.304 586.095 596.216C586.016 596.129 585.858 596.041 585.7 595.953C585.622 595.866 585.543 595.866 585.385 595.866C585.306 595.866 585.148 595.866 584.99 595.866C584.754 595.866 584.517 595.866 584.359 595.953C584.123 596.041 583.965 596.129 583.728 596.216L583.965 596.83C584.123 596.743 584.28 596.655 584.438 596.567C584.596 596.479 584.754 596.479 584.912 596.479C585.069 596.479 585.148 596.479 585.227 596.567C585.306 596.567 585.385 596.655 585.464 596.743C585.543 596.83 585.622 596.918 585.622 597.093C585.7 597.269 585.7 597.444 585.7 597.619C585.7 597.882 585.779 598.058 585.858 598.233C585.937 598.409 585.937 598.584 586.016 598.672C586.095 598.759 586.095 598.847 586.174 598.935H582.308V598.058C582.308 597.619 582.229 597.356 582.072 597.006C581.914 596.742 581.677 596.479 581.44 596.392C581.125 596.216 580.809 596.129 580.415 596.129H579.389V596.83H580.336C580.73 596.83 580.967 596.918 581.204 597.181C581.44 597.356 581.519 597.707 581.519 598.058V598.935H579.074V599.636H589.724C589.96 599.636 590.197 599.548 590.355 599.461C590.513 599.373 590.67 599.198 590.749 599.022C590.907 599.198 591.065 599.373 591.302 599.461C591.538 599.548 591.696 599.548 591.854 599.548H595.798C596.35 599.548 596.745 599.373 596.982 599.022C597.139 599.198 597.297 599.373 597.455 599.373C597.613 599.461 597.849 599.461 598.007 599.461H599.9V593.674H599.269V598.935ZM596.745 598.409C596.666 598.584 596.587 598.759 596.429 598.847C596.272 598.935 596.114 599.022 595.956 599.022H595.325V597.97C595.325 597.444 595.562 596.743 596.114 596.743C596.35 596.743 596.508 596.83 596.666 597.006C596.824 597.181 596.903 597.444 596.903 597.707C596.824 597.97 596.824 598.233 596.745 598.409Z" fill="#BC9661"/>
<path d="M548.702 598.935H547.439C547.282 598.935 547.124 598.935 546.966 598.847C546.887 598.759 546.729 598.672 546.65 598.584C546.729 598.321 546.808 597.97 546.808 597.707C546.808 597.356 546.729 597.093 546.65 596.83C546.493 596.567 546.335 596.392 546.098 596.216C546.019 596.129 545.862 596.129 545.704 596.041C545.546 596.041 545.467 595.953 545.309 595.953C544.599 595.953 543.81 596.479 543.81 597.707V598.935H542.312V595.953H541.602V598.935H541.207C541.049 598.935 540.813 598.935 540.734 598.847C540.576 598.759 540.497 598.672 540.339 598.409C540.339 598.409 540.339 598.321 540.339 598.233V596.129H539.629V598.058C539.629 598.321 539.55 598.584 539.472 598.672C539.314 598.847 539.156 598.935 538.998 598.935H538.288V596.129H537.578V598.935H535.527C535.448 598.847 535.369 598.759 535.369 598.584C535.29 598.409 535.29 598.233 535.212 598.058C535.133 597.882 535.133 597.619 535.054 597.356C534.975 597.093 534.975 596.83 534.896 596.655C534.817 596.479 534.738 596.304 534.659 596.216C534.58 596.129 534.423 596.041 534.265 595.953C534.186 595.866 534.107 595.866 533.949 595.866C533.87 595.866 533.713 595.866 533.555 595.866C533.318 595.866 533.082 595.866 532.924 595.953C532.687 596.041 532.529 596.129 532.293 596.216L532.529 596.83C532.687 596.743 532.845 596.655 533.003 596.567C533.16 596.479 533.318 596.479 533.476 596.479C533.634 596.479 533.713 596.479 533.792 596.567C533.87 596.567 533.949 596.655 534.028 596.743C534.107 596.83 534.186 596.918 534.186 597.093C534.265 597.269 534.265 597.444 534.265 597.619C534.265 597.882 534.344 598.058 534.423 598.233C534.502 598.409 534.502 598.584 534.58 598.672C534.659 598.759 534.659 598.847 534.738 598.935H530.873V598.058C530.873 597.619 530.794 597.356 530.636 597.006C530.478 596.742 530.242 596.479 530.005 596.392C529.768 596.304 529.374 596.129 528.979 596.129H527.954V596.83H528.9C529.295 596.83 529.532 596.918 529.768 597.181C530.005 597.444 530.084 597.707 530.084 598.058V598.935H527.638V599.636H539.077C539.314 599.636 539.55 599.548 539.708 599.461C539.866 599.373 540.024 599.198 540.103 599.022C540.26 599.198 540.418 599.373 540.655 599.461C540.813 599.548 541.049 599.548 541.207 599.548H545.152C545.704 599.548 546.098 599.373 546.335 599.022C546.493 599.198 546.65 599.373 546.808 599.373C546.966 599.461 547.203 599.461 547.36 599.461H549.412V593.674H548.702V598.935ZM545.94 598.409C545.862 598.584 545.783 598.759 545.625 598.847C545.467 598.935 545.309 599.022 545.152 599.022H544.599V597.97C544.599 597.444 544.836 596.743 545.388 596.743C545.625 596.743 545.783 596.83 545.94 597.006C546.098 597.181 546.177 597.444 546.177 597.707C546.019 597.97 546.019 598.233 545.94 598.409Z" fill="#BC9661"/>
<path d="M508.389 596.918C508.153 597.269 507.995 597.619 508.074 598.058C508.153 598.409 508.31 598.672 508.547 598.935C508.784 599.198 509.099 599.373 509.415 599.548C509.652 599.724 509.888 600.075 509.652 600.338C509.494 600.601 509.178 600.688 508.942 600.688C508.626 600.776 507.522 600.688 507.285 600.688C506.969 600.688 506.654 600.513 506.496 600.162C506.338 599.812 506.417 599.198 506.417 598.847C506.417 598.672 506.496 598.409 506.575 598.233H505.865C505.628 598.935 505.549 599.899 505.786 600.601C506.023 601.127 506.496 601.478 507.127 601.478H508.547C509.178 601.478 510.046 601.302 510.283 600.601C510.44 600.075 510.283 599.461 509.888 599.11C509.652 598.847 509.257 598.584 508.942 598.321C508.784 598.145 508.626 597.97 508.705 597.707C508.784 597.356 509.02 597.093 509.336 596.918C509.652 596.655 510.046 596.743 510.44 596.918L510.756 596.304C510.598 596.216 510.362 596.041 510.204 596.041C509.573 595.778 508.863 596.304 508.389 596.918Z" fill="#BC9661"/>
<path d="M312.998 572.242C312.919 572.242 312.761 572.066 312.998 572.242Z" fill="#BB9661"/>
<path d="M317.731 565.49C317.574 564.525 317.1 563.648 316.469 562.947C315.601 561.895 314.655 561.018 313.55 560.229C312.761 559.703 311.973 559.176 311.184 558.738L313.945 557.773L317.495 556.546H317.574C317.574 556.546 317.574 556.546 317.653 556.546C317.731 556.546 317.653 556.458 317.653 556.37V556.195C317.574 555.932 317.416 555.757 317.258 555.494C317.021 555.143 316.706 554.88 316.39 554.617C316.311 554.529 316.233 554.529 316.154 554.529L313.629 553.565L307.476 551.285L300.218 548.479L293.907 546.024L291.856 545.234C291.54 545.059 291.225 544.971 290.909 544.884C290.751 544.884 290.594 544.971 290.436 545.059L288.858 545.673L283.178 547.865L275.92 550.671L269.373 553.214L265.823 554.617L265.586 554.704C265.428 554.792 266.138 555.669 266.138 555.669C266.375 556.107 266.769 556.37 267.164 556.546L269.688 557.423L271.739 558.124C271.266 558.387 270.714 558.65 270.24 559.001C269.294 559.527 268.347 560.229 267.4 560.93C266.769 561.456 266.217 562.158 265.744 562.947C265.586 563.21 265.507 563.561 265.507 563.911V567.419L267.164 568.033C266.138 569.523 265.507 571.365 265.507 573.206C265.507 573.381 265.586 573.469 265.665 573.644C265.744 573.82 265.823 573.908 265.98 573.995L266.059 574.083C266.296 574.346 266.533 574.609 266.848 574.784C266.059 576.801 265.665 578.906 265.586 581.01C265.586 581.448 265.586 581.975 265.586 582.413C265.586 582.588 265.665 582.676 265.744 582.851C265.823 583.027 265.901 583.114 266.059 583.202L266.138 583.29C265.744 585.482 265.586 587.674 265.507 589.866C265.507 590.48 265.507 591.094 265.507 591.708C265.507 591.883 265.586 591.971 265.665 592.146C265.744 592.321 265.823 592.409 265.98 592.497L266.059 592.584C266.296 592.935 266.69 593.286 267.085 593.461L269.609 594.338L275.763 596.618L283.02 599.249L289.331 601.528L291.383 602.318C291.698 602.493 292.014 602.581 292.329 602.668C292.487 602.668 292.645 602.581 292.803 602.493L294.38 601.967L300.06 599.95L307.318 597.319L313.866 594.952L317.416 593.724H317.574V593.637C317.653 590.655 317.416 587.586 316.864 584.693L317.416 584.517H317.574V584.43C317.653 581.448 317.021 578.467 315.759 575.837L317.416 575.135H317.574V575.047C317.495 572.592 316.548 570.225 315.049 568.471L317.574 567.506L317.731 565.49ZM310.631 570.312C311.026 570.575 311.42 570.839 311.736 571.189H311.815L311.894 571.277L312.13 571.452L312.446 571.715L312.525 571.803H312.446L312.525 571.891L312.761 572.154L312.919 572.242L313.077 572.505C313.077 572.505 313.077 572.505 313.077 572.592L313.156 572.68C313.235 572.768 313.314 572.855 313.393 572.943C313.156 572.68 313.393 573.031 313.471 573.118C313.55 573.206 313.55 573.294 313.629 573.294V573.381L313.787 573.557L313.945 573.82L311.105 574.872C309.527 573.644 307.791 572.505 306.056 571.54L310.237 569.962L310.631 570.312ZM312.998 577.503C313.314 577.941 313.077 577.59 312.998 577.503C313.156 577.766 313.314 577.941 313.393 578.029L313.471 578.116C313.471 578.204 313.629 578.292 313.629 578.467L313.787 578.73L313.866 578.906C313.945 579.081 314.024 579.344 314.181 579.519C314.576 580.484 314.891 581.448 315.128 582.413C315.128 582.501 315.128 582.588 315.128 582.676L314.497 582.939L311.105 584.167L301.244 587.762L292.724 590.831C292.093 591.006 291.461 591.269 290.909 591.532H290.83L290.12 591.269L282.705 588.551L272.528 584.956L268.426 583.465C268.505 583.114 268.663 582.676 268.82 582.325C269.609 580.221 270.871 578.379 272.528 576.976L275.92 578.204L283.178 580.835L289.489 583.114L291.54 583.816C291.856 583.991 292.171 584.079 292.487 584.167C292.645 584.167 292.803 584.079 292.96 584.079L294.538 583.553L300.218 581.536L307.476 578.906L312.525 577.064L312.604 577.152C312.683 577.24 312.998 577.59 312.683 577.152L312.998 577.503ZM281.127 561.369L283.02 562.07C281.995 562.859 280.969 563.561 279.865 564.262C278.76 564.964 277.971 565.314 277.025 565.84L274.5 564.964L275.447 564.438C277.261 563.385 279.234 562.508 281.127 561.369ZM305.03 572.066L307.791 573.732C308.186 573.995 308.659 574.258 309.054 574.521L309.685 574.872L310 575.047L310.158 575.135H310.237L309.685 575.311L299.981 578.906L292.171 581.712L291.225 582.062L290.909 582.15H290.83C290.751 582.15 290.673 582.062 290.594 582.062L289.726 581.712L282.074 578.993L273.554 575.924C275.368 574.609 277.419 573.469 279.391 572.329L291.698 576.713L304.951 571.978L305.03 572.066ZM285.781 563.035L286.807 563.385C285.308 564.964 283.73 566.367 282.074 567.594L280.101 566.893L280.733 566.542C282.468 565.49 284.204 564.35 285.781 563.035ZM293.591 557.949C294.696 559.176 295.8 560.229 296.984 561.369L294.301 562.333L294.144 562.07L293.907 561.719L293.828 561.544C293.67 561.281 293.513 561.105 293.434 560.842L293.118 560.316C292.724 559.439 292.566 558.475 292.566 557.51V556.809C292.881 557.072 293.197 557.51 293.591 557.949ZM291.619 561.105C291.777 560.842 292.014 560.492 292.171 560.141C292.645 560.93 293.197 561.719 293.749 562.421L291.856 563.122C291.54 563.21 291.146 563.298 290.83 563.473C290.751 563.385 290.594 563.385 290.515 563.385L290.199 563.298C290.751 562.596 291.225 561.895 291.619 561.105ZM289.331 564.35L291.383 565.051C291.698 565.227 292.014 565.314 292.329 565.402C292.487 565.402 292.645 565.314 292.803 565.227L294.38 564.701L295.327 564.35C295.879 564.964 296.431 565.577 297.063 566.104C297.851 566.893 298.64 567.506 299.508 568.208L291.619 571.014L284.756 568.559C286.413 567.419 287.99 565.928 289.331 564.35ZM299.114 567.156L298.798 566.893L298.64 566.805L298.009 566.279L297.378 565.753L297.22 565.577L296.984 565.402L296.431 564.876L296.195 564.613L296.116 564.525L295.958 564.35L299.114 563.21C299.429 563.473 299.666 563.648 299.981 563.911C301.323 564.964 302.743 565.928 304.241 566.717L300.297 568.12C299.981 567.77 299.508 567.419 299.114 567.156ZM297.615 561.105L297.141 560.667L296.195 559.79L295.958 559.615L295.8 559.439L295.485 559.089C295.248 558.826 295.011 558.563 294.696 558.3L294.38 557.949L294.223 557.773C293.828 557.335 293.434 556.984 293.118 556.546C293.039 556.458 292.96 556.458 292.881 556.37V556.283L292.566 555.844V553.038C295.406 555.406 298.325 557.598 301.323 559.702L300.297 560.053L297.615 561.105ZM288.306 561.544C288.069 561.807 287.911 562.07 287.675 562.333L286.886 562.07C287.517 561.544 288.148 560.93 288.779 560.316C289.174 559.878 289.647 559.439 290.041 559.089C289.568 559.966 288.937 560.755 288.306 561.544ZM305.425 566.191L303.216 565.051C302.111 564.35 300.928 563.648 299.824 562.859L300.139 562.771L303.768 561.544C304.794 562.07 305.819 562.596 306.845 563.122C307.87 563.648 308.738 564.087 309.606 564.613L309.764 564.701L305.425 566.191ZM302.269 559.439C300.139 558.124 298.009 556.721 296.037 555.143C294.933 554.266 293.749 553.389 292.645 552.425L292.487 552.337V549.882C295.327 551.46 298.088 553.038 300.928 554.704C301.48 555.055 302.033 555.406 302.664 555.669C303.216 556.02 303.768 556.195 304.32 556.458L307.081 557.686L302.269 559.439ZM290.83 551.197C289.489 552.249 288.227 553.301 286.965 554.354C284.756 556.195 282.389 557.773 279.944 559.264L279.549 559.527L276.63 558.475L277.104 558.3C278.839 557.51 280.575 556.809 282.231 555.932C282.941 555.581 283.651 555.143 284.283 554.704L287.517 552.863L290.594 551.109L290.751 551.022L290.83 551.197ZM287.833 556.721C288.779 556.02 289.647 555.318 290.594 554.529C289.726 555.669 288.779 556.721 287.833 557.686C286.649 558.913 285.466 560.053 284.125 561.105L283.178 560.755L282.547 560.492C284.361 559.352 286.097 558.037 287.833 556.721ZM276.315 571.277C274.816 572.154 273.317 573.118 271.818 574.083C271.424 574.346 271.108 574.609 270.714 574.96L269.767 574.609C270.95 572.943 272.37 571.54 274.027 570.488L276.315 571.277ZM269.688 575.924C269.136 576.45 268.663 577.152 268.268 577.766C268.505 577.064 268.82 576.363 269.136 575.661L269.688 575.924ZM312.209 560.404C312.683 560.667 313.077 560.93 313.55 561.193L313.708 561.281H313.787L314.024 561.456L314.655 561.895L315.128 562.245H315.207C315.286 562.333 315.365 562.333 315.444 562.421L310.789 564.174C310.079 563.648 309.29 563.122 308.501 562.684C307.397 561.982 306.214 561.456 305.109 560.842L307.476 559.966L310 559.089C310.71 559.527 311.42 559.966 312.209 560.404ZM294.459 547.427L300.139 549.619L307.397 552.425L313.945 554.968L314.339 555.143L313.55 555.406L308.423 557.247L307.003 556.546C305.188 555.669 303.374 554.967 301.559 554.003C300.849 553.652 300.218 553.214 299.587 552.863C298.483 552.249 297.457 551.635 296.353 551.022L292.566 548.83V546.725C292.645 546.813 292.803 546.813 292.881 546.9L294.459 547.427ZM269.373 555.844L269.057 555.757L269.767 555.494L275.841 553.126L283.099 550.32L289.41 547.865L290.83 547.339V548.04C290.673 548.128 290.436 548.216 290.278 548.391L287.754 549.882C285.624 551.109 283.494 552.249 281.443 553.477C280.023 554.266 278.524 555.055 277.025 555.669C275.92 556.283 274.658 556.809 273.475 557.335L269.373 555.844ZM270.477 561.719C271.897 560.755 273.396 559.966 274.895 559.176L275.684 559.439L277.893 560.229C275.684 561.281 273.475 562.508 271.424 563.824L268.899 562.859C269.451 562.508 270.004 562.07 270.477 561.719ZM271.266 569.436C270.083 570.312 269.057 571.452 268.11 572.768C267.874 573.118 267.716 573.469 267.479 573.82H267.4C267.716 571.978 268.505 570.312 269.688 568.997L271.266 569.436ZM315.996 591.094V591.445C315.996 591.445 315.996 591.708 315.996 591.795H315.917C315.838 591.795 315.759 591.883 315.68 591.883L314.655 592.234L305.74 595.478L295.169 599.249L291.777 600.476L290.988 600.739H290.909H290.83C290.594 600.652 290.357 600.564 290.12 600.476L288.7 599.95L284.44 598.459L273.633 594.514L267.4 592.321C267.4 589.691 267.637 587.148 268.11 584.605L269.846 585.219L275.92 587.411L283.178 590.042L289.489 592.321L291.54 593.023C291.856 593.198 292.171 593.286 292.487 593.374C292.645 593.374 292.803 593.286 292.96 593.198L294.538 592.672L300.218 590.655L307.476 588.025L314.024 585.657L315.68 585.044C315.917 587.06 315.996 589.077 315.996 591.094ZM315.68 578.379C315.838 579.081 315.917 579.782 315.917 580.484C315.917 580.659 315.917 580.922 315.917 581.185C315.207 579.519 314.181 577.941 312.919 576.626L313.866 576.275L314.97 575.924C315.365 576.713 315.523 577.59 315.68 578.379ZM314.655 568.559L314.813 568.734L314.97 568.997L315.049 569.085V569.173C315.128 569.26 315.207 569.436 315.207 569.523C315.601 570.488 315.838 571.452 315.917 572.505C315.917 572.68 315.996 572.855 315.917 572.943C315.838 572.943 315.759 572.943 315.68 572.943L314.576 573.294C313.55 571.891 312.288 570.575 310.947 569.523L314.497 568.296L314.655 568.559Z" fill="#BB9661"/>
<path d="M334.298 580.835C333.588 580.835 332.878 581.01 332.168 581.273C331.537 581.624 330.906 582.062 330.432 582.676L330.59 582.939C331.064 582.676 331.537 582.588 332.089 582.588C334.061 582.588 335.324 584.342 335.324 587.06V593.286H338.4V585.219C338.4 584.605 338.321 584.079 338.164 583.465C338.006 582.939 337.69 582.413 337.296 581.975C336.901 581.536 336.428 581.273 335.955 581.01C335.402 580.922 334.85 580.747 334.298 580.835Z" fill="#BB9661"/>
<path d="M329.801 580.835H327.119V593.374H329.801V580.835Z" fill="#BB9661"/>
<path d="M346.368 591.357C344.711 591.357 343.844 589.779 343.844 587.148V580.747H341.083V588.814C341.004 589.428 341.083 589.954 341.24 590.48C341.398 591.006 341.635 591.532 342.029 591.971C342.345 592.409 342.739 592.76 343.213 592.935C343.686 593.198 344.159 593.286 344.633 593.286C345.343 593.286 346.053 593.023 346.684 592.672C347.315 592.321 347.867 591.708 348.34 591.094L348.183 590.831C347.63 591.181 346.999 591.445 346.368 591.357Z" fill="#BB9661"/>
<path d="M351.654 580.835H348.971V593.374H351.654V580.835Z" fill="#BB9661"/>
<path d="M359.7 585.482C358.123 584.956 356.703 584.43 356.703 583.29C356.703 583.114 356.703 582.851 356.781 582.676V582.501H357.018C357.176 582.413 357.413 582.413 357.57 582.413C358.123 582.413 358.675 582.501 359.148 582.764C359.621 583.027 360.095 583.378 360.489 583.816L360.568 583.904L362.935 582.062L362.777 581.887C362.383 581.448 361.988 581.185 361.515 580.922C361.041 580.747 360.489 580.659 360.016 580.659C359.385 580.659 358.833 580.747 358.28 581.01C357.728 581.273 357.255 581.624 356.86 582.15L356.703 582.325H356.545C355.993 582.413 355.519 582.764 355.204 583.202C354.809 583.641 354.651 584.167 354.573 584.781C354.573 586.797 356.545 587.499 358.438 588.113C359.858 588.639 361.199 589.077 361.357 590.129C361.357 590.48 361.278 590.831 361.12 591.182L361.041 591.357H360.805C360.568 591.357 360.331 591.357 360.174 591.357C358.911 591.269 357.728 590.743 356.86 589.779V589.691L354.494 591.532L354.651 591.708C355.046 592.234 355.598 592.585 356.15 592.848C356.703 593.111 357.334 593.286 357.965 593.286C358.596 593.286 359.148 593.198 359.7 592.935C360.253 592.672 360.726 592.321 361.199 591.795L361.357 591.62H361.515C361.751 591.62 363.881 590.831 363.803 588.726C363.408 586.885 361.515 586.183 359.7 585.482Z" fill="#BB9661"/>
<path d="M371.376 591.357C369.561 591.357 368.536 589.779 368.536 587.148V580.747H365.538V588.814C365.459 589.428 365.538 589.954 365.696 590.48C365.854 591.006 366.169 591.532 366.564 591.971C366.958 592.409 367.353 592.76 367.905 592.935C368.378 593.198 368.93 593.286 369.483 593.286C370.271 593.286 371.06 593.023 371.691 592.672C372.401 592.321 372.954 591.708 373.427 591.094L373.19 590.831C372.717 591.181 372.086 591.445 371.376 591.357Z" fill="#BB9661"/>
<path d="M376.819 580.835H374.137V593.374H376.819V580.835Z" fill="#BB9661"/>
<path d="M382.736 574.96H379.422V593.374H382.736V574.96Z" fill="#BB9661"/>
<path d="M390.072 580.835H387.39L382.736 587.06L387.39 593.374H391.335L385.813 586.096L390.072 580.835Z" fill="#BB9661"/>
<path d="M356.939 572.68V560.141H354.02V570.4H349.524H346.605H329.407L327.119 572.242V572.592H343.844H346.762H354.099H355.44L356.939 572.68Z" fill="#BB9661"/>
<path d="M362.067 566.63C362.067 569.26 361.12 570.839 359.542 570.839C358.911 570.839 358.359 570.663 357.807 570.312L357.649 570.575C358.044 571.277 358.596 571.803 359.227 572.154C359.858 572.505 360.568 572.768 361.278 572.768C361.751 572.768 362.304 572.68 362.698 572.505C363.171 572.329 363.566 571.978 363.881 571.54C364.197 571.102 364.512 570.575 364.67 570.049C364.828 569.523 364.907 568.909 364.828 568.296V560.229H362.067V566.63Z" fill="#BB9661"/>
<path d="M366.169 554.704C366.09 554.617 365.932 554.617 365.854 554.617H365.775V554.529C365.854 554.354 365.854 554.178 365.854 554.003C365.854 552.512 365.222 552.074 364.67 552.074C364.197 552.074 363.724 552.337 363.329 552.6C363.014 552.951 362.777 553.389 362.777 553.828C362.777 554.529 363.25 554.968 364.434 555.143H364.67L364.512 555.231C363.487 555.844 362.304 556.37 361.12 556.809L360.884 556.897H361.12C361.515 556.984 361.83 557.072 362.225 557.16C363.408 556.809 364.434 556.195 365.301 555.318C365.38 555.318 365.459 555.406 365.538 555.406L366.169 554.704ZM365.38 554.266C365.38 554.354 365.38 554.441 365.38 554.529C363.803 554.266 363.487 553.74 363.487 553.389C363.487 553.038 363.96 552.688 364.434 552.688C364.828 552.775 365.38 553.389 365.38 554.266Z" fill="#BB9661"/>
<path d="M386.759 563.122L384.471 560.229L382.184 563.122L384.471 566.104L386.759 563.122Z" fill="#BB9661"/>
<path d="M387.39 554.792C387.311 554.704 387.154 554.705 387.075 554.705H386.996V554.617C387.075 554.441 387.075 554.266 387.075 554.091C387.075 552.6 386.444 552.162 385.891 552.162C385.418 552.162 384.945 552.425 384.55 552.775C384.235 553.126 383.998 553.565 383.998 554.091C383.998 554.88 384.471 555.231 385.655 555.494H385.891L385.734 555.581C384.708 556.283 383.525 556.809 382.341 557.16L382.105 557.247H382.341C382.736 557.335 383.051 557.335 383.446 557.335C384.55 556.984 385.576 556.371 386.444 555.581L386.68 555.669L387.233 554.88L387.39 554.792ZM386.601 554.266C386.601 554.354 386.601 554.441 386.601 554.529C385.024 554.266 384.708 553.74 384.708 553.389C384.708 553.038 385.181 552.688 385.655 552.688C386.049 552.775 386.522 553.389 386.601 554.266Z" fill="#BB9661"/>
<path d="M388.495 560.229V570.225H372.165C372.401 569.611 372.48 568.909 372.48 568.296V560.229H369.561V566.63C369.561 569.26 368.615 570.839 366.879 570.839C366.248 570.839 365.617 570.663 365.065 570.312L364.828 570.575C365.301 571.277 365.854 571.803 366.564 572.154C367.195 572.505 367.984 572.768 368.694 572.768C369.325 572.768 369.956 572.592 370.587 572.242C371.139 571.891 371.613 571.365 371.928 570.751L373.821 572.417H391.335V560.229H388.495Z" fill="#BB9661"/>
<path d="M341.398 562.421C342.266 562.333 343.134 562.596 343.923 563.035C344.711 563.473 345.343 564.087 345.895 564.876C346.289 565.577 346.526 566.367 346.526 567.156C346.605 567.945 346.447 568.734 346.21 569.523V569.699L346.368 569.786H346.447C347.394 569.26 348.104 568.383 348.498 567.331C348.971 566.279 349.05 565.139 348.814 563.999C348.577 562.859 347.946 561.807 347.078 561.193C346.21 560.492 345.185 560.141 344.08 560.229H334.14L339.189 554.354H336.428L331.695 560.404L332.089 562.421H341.398Z" fill="#BB9661"/>
<path d="M237.16 392.128C237.16 392.128 247.81 403.352 245.917 407.21C245.523 407.911 243.471 407.999 241.105 407.912C241.105 407.912 233.137 407.912 231.48 407.912C229.824 407.912 225.879 407.385 225.879 402.387C226.431 395.548 237.16 392.128 237.16 392.128ZM234.557 385.815C234.557 387.305 233.453 388.533 232.033 388.533C230.691 388.533 229.587 387.218 229.587 385.815C229.587 384.236 230.691 383.097 232.033 383.097C233.531 383.009 234.557 384.236 234.557 385.815ZM235.504 401.335C235.504 400.02 234.636 398.968 233.374 398.968C232.19 398.968 231.244 399.932 231.244 401.335C231.244 402.65 232.19 403.703 233.374 403.703C234.557 403.703 235.504 402.563 235.504 401.335ZM240.947 385.815C240.947 387.305 239.843 388.533 238.501 388.533C237.16 388.533 236.056 387.218 236.056 385.815C236.056 384.236 237.239 383.097 238.501 383.097C239.843 383.009 240.947 384.236 240.947 385.815Z" fill="white"/>
<path d="M265.56 402.738V407.911H261.143V408.262C260.985 412.559 258.855 415.715 255.384 415.715H247.731L250.256 410.63H254.831C256.646 410.63 256.725 408.175 256.725 408.175C256.725 407.298 256.33 395.986 256.33 395.986L261.143 393.706V402.738H265.56Z" fill="white"/>
<path d="M286.071 407.911H280.155C278.419 408.788 275.816 409.051 273.291 409.051C270.609 409.051 267.848 408.613 266.191 407.911H261.458V402.738H264.929C265.403 400.283 267.138 393.356 273.607 393.18C277.394 393.18 281.023 397.915 281.969 402.563H286.15V407.911H286.071ZM274.633 401.335C274.633 400.02 273.686 398.968 272.503 398.968C271.319 398.968 270.294 400.02 270.294 401.335C270.294 402.65 271.24 403.79 272.503 403.79C273.686 403.79 274.633 402.738 274.633 401.335Z" fill="white"/>
<path d="M310.764 407.912H282.285V402.738H291.751L286.939 392.304H307.766L303.111 402.738H310.764V407.912ZM299.561 399.669C299.561 398.354 298.615 397.302 297.431 397.302C296.248 397.302 295.223 398.266 295.223 399.669C295.223 400.984 296.169 402.124 297.431 402.124C298.615 402.124 299.561 400.984 299.561 399.669Z" fill="white"/>
<path d="M316.917 377.222V407.911H306.188V402.738H312.341L312.184 379.501L316.917 377.222Z" fill="white"/>
<path d="M321.177 400.546L320.783 379.414L325.595 377.222V400.634C325.595 403.615 327.015 405.018 327.804 405.632C327.409 406.07 326.147 408.087 325.358 408.964C321.019 408.175 321.177 402.475 321.177 400.546Z" fill="white"/>
<path d="M367.8 405.018C367.8 407.824 363.461 409.051 358.728 409.051C356.046 409.051 353.364 408.613 351.786 407.911H337.191L339.716 402.563C346.658 402.65 346.658 402.65 350.603 402.738C351.076 400.283 352.811 393.356 359.28 393.18C362.515 393.18 365.591 396.688 367.169 400.721C367.406 401.949 367.8 403.703 367.8 405.018ZM360.227 401.335C360.227 400.02 359.28 398.968 358.097 398.968C356.914 398.968 355.888 400.02 355.888 401.335C355.888 402.65 356.835 403.79 358.097 403.79C359.28 403.79 360.227 402.738 360.227 401.335Z" fill="white"/>
<path d="M370.877 379.414L375.689 377.046V402.738H382.316V407.911H371.35L370.877 379.414Z" fill="white"/>
<path d="M401.17 407.911H395.175C393.439 408.788 390.836 409.051 388.311 409.051C385.629 409.051 382.868 408.613 381.211 407.911H376.478V402.738H379.949C380.423 400.283 382.158 393.356 388.627 393.18C392.414 393.18 396.043 397.915 396.989 402.563H401.17V407.911ZM389.653 401.335C389.653 400.02 388.706 398.968 387.523 398.968C386.339 398.968 385.314 400.02 385.314 401.335C385.314 402.65 386.26 403.79 387.523 403.79C388.706 403.79 389.653 402.738 389.653 401.335Z" fill="white"/>
<path d="M413.398 407.911H398.094V402.738H408.823L408.507 396.6L413.319 393.531V407.911H413.398ZM407.008 388.27C407.008 389.848 405.904 391.076 404.563 391.076C403.143 391.076 402.117 389.761 402.117 388.27C402.117 386.779 403.221 385.552 404.563 385.552C405.904 385.552 407.008 386.779 407.008 388.27ZM413.398 388.27C413.398 389.848 412.215 391.076 410.874 391.076C409.533 391.076 408.428 389.761 408.428 388.27C408.428 386.779 409.611 385.552 410.874 385.552C412.294 385.552 413.398 386.779 413.398 388.27Z" fill="white"/>
<path d="M423.733 416.329L423.811 418.521C421.05 418.521 415.686 418.521 415.686 418.521V416.242H417.658C417.5 415.891 417.343 415.189 417.343 414.839C417.343 412.383 418.289 410.717 420.419 410.63C421.445 410.63 423.338 411.331 423.575 411.419C423.338 411.857 423.101 412.646 422.865 412.997C422.786 412.997 421.76 412.646 421.681 412.646C420.814 412.646 420.104 413.348 420.104 414.4C420.104 415.452 420.656 416.242 421.681 416.242C421.681 416.242 421.918 416.242 422.076 416.242H423.733V416.329ZM417.264 400.546L416.869 379.414L421.681 377.222V400.634C421.681 403.615 423.101 405.018 423.89 405.632C423.496 406.07 422.234 408.087 421.445 408.964C417.185 408.175 417.264 402.475 417.264 400.546Z" fill="white"/>
<path d="M466.885 402.738V407.912H460.889C459.233 408.788 456.708 409.139 454.184 409.139C451.501 409.139 448.583 408.701 447.005 407.912C440.694 407.912 433.515 407.912 432.647 407.912L435.171 402.738H445.821C446.295 400.283 448.03 393.443 454.499 393.268C458.365 393.268 461.915 398.003 462.861 402.738H466.885ZM455.446 401.51C455.446 400.195 454.578 399.055 453.237 399.055C452.054 399.055 451.107 400.108 451.107 401.51C451.107 402.826 452.054 403.878 453.237 403.878C454.499 403.878 455.446 402.826 455.446 401.51Z" fill="white"/>
<path d="M508.459 407.911H462.94V402.738H498.835L496.784 399.581H468.936L477.377 382.483L481.243 384.938L476.509 394.496H499.387L504.673 402.826H508.459V407.911Z" fill="white"/>
<path d="M514.06 377.222V407.911H503.331V402.738H509.485L509.327 379.501L514.06 377.222Z" fill="white"/>
<path d="M569.835 407.911H524.395L526.919 402.738H561.551L559.421 399.581H531.574L540.015 382.483L543.88 384.938L539.226 394.496H562.104L569.835 407.911Z" fill="white"/>
<path d="M580.011 395.986L584.903 393.706V408.262C584.824 412.646 582.615 415.891 579.144 415.891H571.491L574.016 410.717H578.67C580.406 410.717 580.485 408.262 580.485 408.262C580.564 407.385 580.09 395.986 580.011 395.986Z" fill="white"/>
<path d="M588.295 379.414L593.107 377.046V402.738H599.734V407.911H588.768L588.295 379.414Z" fill="white"/>
<path d="M606.439 402.738V407.911H593.896V402.738H599.497L599.182 396.6L603.994 393.531V402.738H606.439ZM602.495 413.874C602.495 415.365 601.312 416.592 599.97 416.592C598.629 416.592 597.525 415.277 597.525 413.874C597.525 412.296 598.708 411.068 599.97 411.068C601.312 411.068 602.495 412.296 602.495 413.874Z" fill="white"/>
<path d="M625.215 405.018C625.215 407.824 620.876 409.051 616.143 409.051C613.46 409.051 610.699 408.613 609.121 407.911H603.994V402.738H607.938C608.411 400.283 610.147 393.356 616.616 393.18C619.85 393.18 622.927 396.688 624.505 400.721C624.82 401.949 625.215 403.703 625.215 405.018ZM617.563 401.335C617.563 400.02 616.616 398.968 615.433 398.968C614.249 398.968 613.224 400.02 613.224 401.335C613.224 402.65 614.249 403.79 615.433 403.79C616.695 403.79 617.563 402.738 617.563 401.335Z" fill="white"/>
<path d="M273.987 475.078V480.252H267.991C266.335 481.129 263.81 481.479 261.286 481.479C258.604 481.479 255.685 481.041 254.107 480.252C247.796 480.252 240.617 480.252 239.749 480.252L242.274 475.078H252.924C253.397 472.623 255.132 465.784 261.601 465.608C265.467 465.608 269.017 470.343 269.964 475.078H273.987ZM262.548 473.851C262.548 472.535 261.68 471.396 260.339 471.396C259.156 471.396 258.209 472.448 258.209 473.851C258.209 475.166 259.156 476.218 260.339 476.218C261.601 476.218 262.548 475.166 262.548 473.851Z" fill="white"/>
<path d="M315.561 480.252H270.042V475.078H305.937L303.886 471.922H276.038L284.479 454.823L288.345 457.278L283.611 466.836H306.489L311.775 475.166H315.561V480.252Z" fill="white"/>
<path d="M326.29 475.078V480.164V480.252H312.721V475.078H319.506L319.19 468.94L324.002 465.871V475.078H326.29ZM319.979 460.61C319.979 462.189 318.875 463.416 317.455 463.416C316.114 463.416 315.009 462.101 315.009 460.61C315.009 459.12 316.114 457.892 317.455 457.892C318.875 457.892 319.979 459.207 319.979 460.61Z" fill="white"/>
<path d="M345.618 477.358C345.618 480.164 341.279 481.392 336.546 481.392C333.864 481.392 331.102 480.953 329.525 480.252H324.397V475.078H328.341C328.815 472.623 330.55 465.696 337.019 465.521C340.254 465.521 343.33 469.028 344.908 473.062C345.224 474.377 345.618 476.131 345.618 477.358ZM337.966 473.763C337.966 472.448 337.098 471.396 335.836 471.396C334.652 471.396 333.627 472.448 333.627 473.763C333.627 475.078 334.652 476.218 335.836 476.218C337.098 476.131 337.966 475.078 337.966 473.763Z" fill="white"/>
<path d="M377.962 480.252H373.939V485.513C373.939 485.688 373.939 486.039 373.939 486.39C373.939 487.091 373.781 487.968 372.361 487.968H355.321L357.057 482.882H369.206V451.842L374.018 449.562V475.078H377.962V480.252Z" fill="white"/>
<path d="M387.745 475.078V480.252H375.201V475.078H380.802L380.487 468.94L385.299 465.871V475.078H387.745ZM383.721 486.214C383.721 487.705 382.538 488.933 381.197 488.933C379.856 488.933 378.751 487.617 378.751 486.214C378.751 484.636 379.935 483.408 381.197 483.408C382.617 483.408 383.721 484.724 383.721 486.214Z" fill="white"/>
<path d="M412.674 475.078V480.252H382.775V475.078H402.339C402.97 474.991 403.601 474.026 403.601 473.325C403.601 472.886 403.286 472.535 402.734 472.535H393.819C392.557 472.535 388.849 471.571 388.849 467.537C388.849 463.855 391.61 460.259 394.45 458.681C396.344 457.717 399.499 457.454 399.499 457.454C399.499 457.454 408.256 465.082 408.256 473.412C408.256 474.026 408.098 474.64 407.94 475.166H412.674V475.078ZM395.318 451.929C395.318 453.42 394.214 454.648 392.872 454.648C391.452 454.648 390.427 453.42 390.427 451.929C390.427 450.351 391.531 449.211 392.872 449.211C394.292 449.123 395.318 450.351 395.318 451.929ZM397.842 465.521C397.842 464.205 396.896 463.065 395.634 463.065C394.45 463.065 393.504 464.205 393.504 465.521C393.504 466.836 394.45 467.976 395.634 467.976C396.817 467.888 397.842 466.836 397.842 465.521ZM401.787 451.929C401.787 453.42 400.604 454.648 399.262 454.648C397.921 454.648 396.817 453.42 396.817 451.929C396.817 450.351 398 449.211 399.262 449.211C400.604 449.123 401.787 450.351 401.787 451.929Z" fill="white"/>
<path d="M426.085 475.078V480.164V480.252H408.571V475.078H419.3L418.985 468.94L423.797 465.871V475.078H426.085ZM415.987 460.61C415.987 462.189 414.882 463.416 413.541 463.416C412.2 463.416 411.096 462.101 411.096 460.61C411.096 459.12 412.279 457.892 413.541 457.892C414.882 457.892 415.987 459.207 415.987 460.61ZM422.298 460.61C422.298 462.189 421.194 463.416 419.852 463.416C418.511 463.416 417.407 462.101 417.407 460.61C417.407 459.12 418.511 457.892 419.852 457.892C421.194 457.892 422.298 459.207 422.298 460.61Z" fill="white"/>
<path d="M439.18 480.252H423.876V475.078H434.605L434.289 468.94L439.101 465.871V480.252H439.18ZM431.212 486.214C431.212 487.705 430.108 488.933 428.767 488.933C427.426 488.933 426.321 487.617 426.321 486.214C426.321 484.636 427.426 483.408 428.767 483.408C430.108 483.408 431.212 484.724 431.212 486.214ZM437.602 486.214C437.602 487.705 436.419 488.933 435.157 488.933C433.737 488.933 432.711 487.617 432.711 486.214C432.711 484.636 433.816 483.408 435.157 483.408C436.419 483.408 437.602 484.724 437.602 486.214Z" fill="white"/>
<path d="M469.079 473.062C469.079 475.955 469.158 479.55 469.158 480.953C469.158 485.776 462.61 489.108 459.139 489.108C455.274 489.108 449.278 486.214 449.278 480.252C449.278 479.55 449.278 477.358 449.357 476.657C451.014 475.78 452.355 475.078 453.932 474.201C453.932 475.868 453.932 476.657 453.932 479.989C453.932 482.181 457.088 483.671 459.218 483.671C462.531 483.671 464.267 481.479 464.267 479.55C464.267 471.659 464.267 470.606 464.267 469.817L469.158 467.8C469.158 468.59 469.079 471.571 469.079 473.062ZM456.615 469.993C456.615 468.502 457.798 467.274 459.06 467.274C460.48 467.274 461.585 468.59 461.585 469.993C461.585 471.571 460.48 472.711 459.06 472.711C457.719 472.711 456.615 471.571 456.615 469.993Z" fill="white"/>
<path d="M479.414 451.316L479.492 453.508C476.731 453.508 471.367 453.508 471.367 453.508V451.228H473.339C473.181 450.877 473.024 450.176 473.024 449.825C473.024 447.37 473.97 445.704 476.1 445.616C477.126 445.616 479.019 446.318 479.256 446.405C479.019 446.844 478.782 447.633 478.546 447.984C478.467 447.984 477.441 447.633 477.362 447.633C476.495 447.633 475.785 448.334 475.785 449.387C475.785 450.351 476.337 451.228 477.362 451.228C477.362 451.228 477.599 451.228 477.757 451.228H479.414V451.316ZM473.26 472.974L472.945 456.664L477.757 455.086V473.062C477.757 476.043 479.177 477.446 479.966 478.06C479.571 478.498 478.309 480.515 477.441 481.392C473.181 480.515 473.26 474.815 473.26 472.974Z" fill="white"/>
<path d="M507.498 475.078V480.252H491.957C490.142 479.55 488.722 477.095 488.722 473.938C488.722 468.94 491.799 466.047 496.848 466.047C497.952 466.047 499.294 466.222 500.871 466.485L500.714 463.592L505.526 460.523V475.078H507.498ZM501.108 473.149C501.108 471.746 500.082 470.606 498.82 470.606C497.637 470.606 496.611 471.746 496.611 473.149C496.611 474.465 497.558 475.604 498.82 475.604C500.082 475.604 501.108 474.465 501.108 473.149Z" fill="white"/>
<path d="M517.438 475.078V480.252H506.157V475.078H509.865L509.707 451.842L514.519 449.474V475.078H517.438Z" fill="white"/>
<path d="M524.538 449.562V480.252H513.809V475.078H519.962L519.805 451.842L524.538 449.562Z" fill="white"/>
<path d="M528.798 472.974L528.404 451.842L533.216 449.65V473.062C533.216 476.043 534.636 477.446 535.425 478.06C535.03 478.498 533.768 480.515 532.979 481.392C528.719 480.515 528.798 474.815 528.798 472.974Z" fill="white"/>
<path d="M562.641 474.991V481.041C562.641 481.216 562.641 481.567 562.641 481.83C562.641 482.532 562.484 483.496 561.064 483.496H544.024L545.759 478.41H557.829V451.754L562.641 449.474V474.991Z" fill="white"/>
<path d="M573.291 451.316L573.37 453.508C570.609 453.508 565.245 453.508 565.245 453.508V451.228H567.217C567.059 450.877 566.901 450.176 566.901 449.825C566.901 447.37 567.848 445.704 569.978 445.616C571.004 445.616 572.897 446.318 573.134 446.405C572.897 446.844 572.66 447.633 572.424 447.984C572.345 447.984 571.319 447.633 571.24 447.633C570.372 447.633 569.662 448.334 569.662 449.387C569.662 450.351 570.215 451.228 571.24 451.228C571.24 451.228 571.477 451.228 571.635 451.228H573.291V451.316ZM575.106 480.252H566.665L566.507 457.103L571.319 454.823V475.078C572.424 475.078 573.528 475.078 575.185 475.078V480.252H575.106Z" fill="white"/>
<path d="M603.032 475.078V480.252H571.871V475.078H577.394V469.73L582.206 466.748V475.166H585.204V469.817L590.095 466.836V475.254H593.092V467.976L597.905 464.907V475.254H603.032V475.078Z" fill="white"/>
<path d="M611 480.252H600.035V475.078H606.504L606.188 468.94L611 465.871V480.252ZM610.606 460.61C610.606 462.189 609.422 463.416 608.081 463.416C606.74 463.416 605.636 462.101 605.636 460.61C605.636 459.12 606.819 457.892 608.081 457.892C609.422 457.892 610.606 459.207 610.606 460.61Z" fill="white"/>
<defs>
<linearGradient id="paint0_linear_1_84" x1="96.8019" y1="475.078" x2="755.524" y2="475.078" gradientUnits="userSpaceOnUse">
<stop stop-color="#26343F"/>
<stop offset="1" stop-color="#26343F"/>
</linearGradient>
<linearGradient id="paint1_linear_1_84" x1="1024.38" y1="1194.78" x2="1225.06" y2="650.715" gradientUnits="userSpaceOnUse">
<stop stop-color="#B79967"/>
<stop offset="1" stop-color="#1F2A37"/>
</linearGradient>
</defs>
</svg>
