<?xml version="1.0" encoding="utf-8"?>
<!-- Generator: Adobe Illustrator 24.3.0, SVG Export Plug-In . SVG Version: 6.00 Build 0)  -->
<svg version="1.1" id="Layer_1" xmlns="http://www.w3.org/2000/svg" xmlns:xlink="http://www.w3.org/1999/xlink" x="0px" y="0px"
	 viewBox="0 0 1080 1080" style="enable-background:new 0 0 1080 1080;" xml:space="preserve">
<style type="text/css">
	.st0{fill:#B89968;}
	.st1{fill:#FFFFFF;}
</style>
<circle class="st0" cx="539.9" cy="540" r="501.2"/>
<g>
	<path class="st1" d="M787.5,723.5c-1.7-13.8-5.8-27.1-12.3-39.4c-6.3-15.9-14.9-30.8-25.6-44.2c-25.9-31.2-72.9-48.7-120.9-48.9
		c-17.9,0.2-23.6-34.6-24.6-42.4c49.8-21.4,83-74.9,92.7-125.4c42.1-8.4,59.6-59.6,25.9-87.4v0c-2.8-2.3-5.9-4.4-9.1-6.1v-76
		c-7.4-38.1-36.4-65.9-70.2-63c-24.6-60.3-147.4-40.3-152.1-39.5c-109.3,7.7-135.8,105.2-122.6,177.1
		c-45.9,21.8-35.4,84.3,14.1,94.8h0c5.6,27.6,16.9,53.8,33.3,76.8c15.4,21,35.8,37.7,59.5,48.6c-1.2,14.1-6.5,27.7-15.2,38.9
		c-2.7,2.7-6.5,4-10.3,3.6c-70.9,0.6-122.8,32.7-145.7,93.2c-6.4,12.1-10.5,25.3-12.2,38.9c-0.8,5.6-0.9,30.8-0.7,78.6l0,12.8h0
		c0.1,13.6,11.1,24.5,24.6,24.5h52.9c84-0.3,258.8,0.2,341.4,0h52.9c13.6,0,24.5-11,24.6-24.5l0-12.5
		C788.4,754,788.3,728.7,787.5,723.5L787.5,723.5z M594.1,814.4l-127,0h0c85.6-36.8,151-109,179.1-197.9
		c16.1,1.5,31.8,5.6,46.6,12.1C687.9,659.5,667.5,749.1,594.1,814.4L594.1,814.4z M701.4,395.3L701.4,395.3
		c1.6-14.4,2.1-28.9,1.5-43.4c8.2,4.3,13.3,12.9,13,22.2C715.5,383.3,709.9,391.6,701.4,395.3L701.4,395.3z M412.1,216.6
		c17-23.5,44.5-37.2,82.5-40.9c1.2-0.2,119.5-18.7,127.9,31h0c0.6,3.5,2.7,6.6,5.8,8.5c12.3,5.9,14.4-6,35.8,4.1
		c12.7,8.3,21.6,21.3,24.8,36.2v43.5c-4-6.5-8.8-12.6-14.2-18c-24.5-22.8-60.7-27.4-90.1-11.5L560.5,283c-12.8,7-28.2,7-41,0
		l-24.2-13.6h0c-37-20-83.2-6.9-104.4,29.4C389,269.9,396.4,241,412.1,216.6L412.1,216.6z M364,373.2c0.2-7.1,3.4-13.9,9-18.4
		c1.4-1,2.7-2,4.2-2.9c-0.6,14.5-0.2,29,1.4,43.4C370,391.1,364.4,382.7,364,373.2L364,373.2z M436.2,485.3
		c-41.6-56.7-35.8-136.9-31.9-155.3c5.2-25.7,27.4-44.6,53.6-45.6c16.3-1.3,35.8,13,49.4,20.2v0c20.3,11.1,44.9,11.2,65.2,0
		l24.2-13.6c32.4-19,72.9,5.9,78.9,39.1c3.9,18.4,9.7,98.5-31.9,155.3h0c-23.9,33.6-62.6,53.5-103.8,53.5
		C498.8,538.8,460.1,518.9,436.2,485.3L436.2,485.3z M316.4,801.6c-0.1-22.4-0.2-69.1,0.5-75.3c1.4-11.1,4.8-21.9,10.2-31.8
		c5.5-13.8,12.9-26.7,21.9-38.5c26.2-27.2,62.8-41.9,100.5-40.3c11.7,0.7,23-4.1,30.7-13c10.3-13,16.9-28.6,19.1-45
		c26.4,9,55,9,81.3,0c2.8,19.7,15.4,53.4,40.1,57.3c-19.3,56.9-75.5,162.6-231.3,199.4h-7.6v-52.5c-0.1-6.7-5.6-12.1-12.4-12.1
		s-12.2,5.4-12.4,12.1v52.5h-40.7L316.4,801.6z M763.5,814.3h-40.7v-52.4h0c0-6.8-5.5-12.4-12.4-12.4c-6.8,0-12.4,5.5-12.4,12.4
		v52.4l-68.7,0v0c43.9-48.5,73.7-108.1,86.1-172.4c17.2,13.6,30.1,31.8,37.3,52.5c5.4,10,8.8,21,10.2,32.3
		C763.9,735.6,763.5,791.3,763.5,814.3L763.5,814.3z"/>
	<path class="st1" d="M641.6,689.2c-3.1-1.1-6.5-1-9.4,0.4c-3,1.4-5.3,3.9-6.4,6.9c-9.1,25.5-26,47.5-48.2,62.9
		c-5.3,4-8.9,6.6-10.4,11.5h0c-1.7,5.8,1,11.9,6.4,14.6c5.4,2.7,11.9,1.1,15.4-3.8c27.6-18.5,48.6-45.3,59.9-76.6
		C651.3,698.7,648,691.6,641.6,689.2L641.6,689.2z"/>
</g>
</svg>
