<?xml version="1.0" encoding="utf-8"?>
<!-- Generator: Adobe Illustrator 24.3.0, SVG Export Plug-In . SVG Version: 6.00 Build 0)  -->
<svg version="1.1" id="Layer_1" xmlns="http://www.w3.org/2000/svg" xmlns:xlink="http://www.w3.org/1999/xlink" x="0px" y="0px"
	 viewBox="0 0 1080 1080" style="enable-background:new 0 0 1080 1080;" xml:space="preserve">
<style type="text/css">
	.st0{fill:#B89968;}
	.st1{fill:#FFFFFF;}
</style>
<circle class="st0" cx="539.9" cy="540" r="501.2"/>
<path class="st1" d="M540,302.8c65.5,0,124.8,26.6,167.8,69.5c43,42.9,69.5,102.2,69.5,167.8c0,20.2-2.5,39.9-7.3,58.6
	c-4.9,19.2-12.2,37.6-21.6,54.9c-4,7.5-13.4,10.2-20.9,6.1c-1.3-0.7-2.5-1.6-3.5-2.7l-0.1,0.1l-301-301c-6-6-6-15.8,0-21.8
	c1.4-1.4,3-2.5,4.7-3.3c16.9-9.1,34.9-16.2,53.7-21C500.1,305.2,519.8,302.7,540,302.8L540,302.8z M540,210.9
	c90.9,0,173.2,36.8,232.7,96.4c59.6,59.6,96.4,141.9,96.4,232.7c0,90.9-36.8,173.2-96.4,232.7c-59.6,59.6-141.8,96.4-232.7,96.4
	c-90.9,0-173.2-36.8-232.7-96.4c-59.6-59.6-96.4-141.9-96.4-232.7s36.8-173.2,96.4-232.7C366.8,247.7,449.1,210.9,540,210.9z
	 M750.9,329.1c-54-54-128.6-87.4-210.9-87.4s-156.9,33.4-210.9,87.4c-54,54-87.4,128.6-87.4,210.9c0,82.4,33.4,156.9,87.4,210.9
	c54,54,128.6,87.4,210.9,87.4s156.9-33.4,210.9-87.4c54-54,87.4-128.6,87.4-210.9C838.3,457.6,804.9,383.1,750.9,329.1z
	 M685.9,394.1c-37.3-37.3-89-60.5-146-60.5c-17.6,0-34.7,2.2-51,6.4c-9.9,2.5-19.6,5.8-28.9,9.7l270.3,270.3
	c3.9-9.3,7.1-18.9,9.7-28.9c4.1-16.3,6.4-33.4,6.4-51C746.4,483,723.3,431.4,685.9,394.1L685.9,394.1z M652.3,749
	c-16.9,9.1-34.9,16.2-53.6,21c-18.8,4.8-38.4,7.3-58.6,7.3c-65.5,0-124.8-26.6-167.8-69.5c-43-42.9-69.5-102.2-69.5-167.8
	c0-20.2,2.5-39.9,7.3-58.6c4.9-19.2,12.2-37.6,21.6-54.9c4-7.5,13.4-10.2,20.9-6.1c1.3,0.7,2.5,1.6,3.5,2.7l0.1-0.1l301,301
	c6,6,6,15.8,0,21.8C655.7,747.2,654.1,748.3,652.3,749L652.3,749z M591,740.1c9.9-2.5,19.6-5.8,28.8-9.7L349.6,460.1
	c-3.9,9.3-7.1,18.9-9.7,28.8c-4.1,16.3-6.4,33.4-6.4,51c0,57,23.1,108.6,60.5,146c37.3,37.3,89,60.5,146,60.5
	C557.6,746.4,574.7,744.2,591,740.1L591,740.1z"/>
</svg>
