<?xml version="1.0" encoding="utf-8"?>
<!-- Generator: Adobe Illustrator 24.3.0, SVG Export Plug-In . SVG Version: 6.00 Build 0)  -->
<svg version="1.1" id="Layer_1" xmlns="http://www.w3.org/2000/svg" xmlns:xlink="http://www.w3.org/1999/xlink" x="0px" y="0px"
	 viewBox="0 0 1080 1080" style="enable-background:new 0 0 1080 1080;" xml:space="preserve">
<style type="text/css">
	.st0{fill:#B89968;}
	.st1{fill:#FFFFFF;}
</style>
<circle class="st0" cx="539.9" cy="540" r="501.2"/>
<path class="st1" d="M192.3,697.7h184.4c7.8,0,14.2-6.4,14.2-14.2v-14.2c0-31.3-25.4-56.7-56.7-56.7c-5.2,0.1-10.3,0.8-15.3,2.3
	c-6.8-38.6-43.6-64.4-82.2-57.6c-28.6,5-51.3,27-57.2,55.4h-1.4c-31.3,0-56.7,25.4-56.7,56.7v14.2c0,7.8,6.4,14.2,14.2,14.2
	L192.3,697.7z M362.5,669.3h-56.7c0-15.7,12.7-28.4,28.4-28.4C349.8,640.9,362.5,653.6,362.5,669.3z M249,584.2
	c23.5,0,42.6,19.1,42.6,42.6v5.4c-9.1,10.3-14.1,23.5-14.2,37.2h-42.6c-0.2-20.1-11-38.5-28.4-48.5
	C209.4,599.6,227.7,583.9,249,584.2z M178.1,640.9c15.7,0,28.4,12.7,28.4,28.4h-56.7C149.7,653.6,162.4,640.9,178.1,640.9z"/>
<path class="st1" d="M887.4,555.8c-34.5,0.1-64,25-69.8,59c-5-1.4-10.1-2.2-15.3-2.3c-31.3,0-56.7,25.4-56.7,56.7v14.2
	c0,7.8,6.4,14.2,14.2,14.2h184.4c7.8,0,14.2-6.4,14.2-14.2v-56.7C958.4,587.5,926.6,555.8,887.4,555.8z M773.9,669.3
	c0-15.7,12.7-28.4,28.4-28.4s28.4,12.7,28.4,28.4H773.9z M930,669.3h-70.9c-0.1-13.7-5.1-26.9-14.2-37.2v-5.4
	c0-23.5,19.1-42.6,42.6-42.6s42.6,19.1,42.6,42.6V669.3z"/>
<path class="st1" d="M731.4,598.3l-61.3-35.5v21.3H447.6c-7.8,0-14.2,6.4-14.2,14.2s6.4,14.2,14.2,14.2h222.5v21.1L731.4,598.3z"/>
<path class="st1" d="M494.7,704.6v-21.1h222.5c7.8,0,14.2-6.4,14.2-14.2c0-7.8-6.4-14.2-14.2-14.2H494.7v-21.3l-61.3,35.5
	L494.7,704.6z"/>
<path class="st1" d="M247.2,531.9c2.7,3.5,6.8,5.5,11.2,5.5l0,0c4.6-0.1,8.8-2.5,11.3-6.2l38.3-56.7c15.5-21.9,15.5-51.2,0-73.1
	c-12.2-16.4-31.5-26.1-51.9-26.1c-10.7-0.1-21.2,2.6-30.6,7.7c-16.2,8.6-27.9,23.9-31.8,41.9c-4,18.8,0.5,38.4,12.2,53.6
	L247.2,531.9z M257.7,499.2l-29.9-38c-4.7-6.2-7.4-13.8-7.7-21.6l16.6,24.7c0.3,0.5,0.6,1,1,1.4c7.2,9.9,21.1,12,30.9,4.8
	c1.8-1.3,3.5-3,4.8-4.8c0.4-0.4,0.7-0.9,1-1.4l16.5-24.5c-0.2,6.9-2.5,13.6-6.4,19.3L257.7,499.2z M256.1,403.7
	c7.5,0,14.9,2.4,21,6.8l-21,30.9l-20.9-31.2c1-0.8,2-1.5,3.1-2.1C243.8,405.2,249.9,403.6,256.1,403.7z"/>
<path class="st1" d="M849.3,383c-16.1,8.7-27.5,24-31.4,41.9c-4,18.8,0.5,38.4,12.2,53.6l41.3,53.5c2.7,3.5,6.8,5.5,11.2,5.5l0,0
	c4.6-0.1,8.8-2.5,11.3-6.2l38.3-56.7c15.5-21.9,15.5-51.2,0-73.1c-12.2-16.4-31.5-26.1-51.9-26.1C869.5,375.2,858.8,377.8,849.3,383
	z M880.4,403.7c7.5,0,14.9,2.4,21,6.8l-21,30.9l-20.9-31.2c1-0.8,2-1.5,3.1-2.1C868.1,405.2,874.2,403.6,880.4,403.7z M882.3,499.2
	l-30.4-38c-4.7-6.2-7.4-13.8-7.7-21.6l16.6,24.7c0.3,0.5,0.6,1,1,1.4c7.2,9.9,21.1,12,30.9,4.8c1.8-1.3,3.5-3,4.8-4.8
	c0.4-0.4,0.7-0.9,1-1.4l16.5-24.5c-0.2,6.9-2.5,13.6-6.4,19.3L882.3,499.2z"/>
</svg>
