<?xml version="1.0" encoding="utf-8"?>
<!-- Generator: Adobe Illustrator 24.3.0, SVG Export Plug-In . SVG Version: 6.00 Build 0)  -->
<svg version="1.1" id="Layer_1" xmlns="http://www.w3.org/2000/svg" xmlns:xlink="http://www.w3.org/1999/xlink" x="0px" y="0px"
	 viewBox="0 0 1080 1080" style="enable-background:new 0 0 1080 1080;" xml:space="preserve">
<style type="text/css">
	.st0{fill:#B89968;}
	.st1{enable-background:new    ;}
	.st2{fill:#FFFFFF;}
</style>
<circle class="st0" cx="539.9" cy="540" r="501.2"/>
<g class="st1">
	<path class="st2" d="M488.8,584.9v49.7c0,0-42,0-58.3,0v62.2c0,15.5-7.8,21-24.9,21H258.7c-22.5,0-42-49-53.6-67.6
		c-0.8,0-0.8-1.6-0.8-2.3c0.8-7,31.1-38.9,35.8-38.9c8.5,19.4,25.6,57.5,38.9,62.2c3.9,0.8,8.5,0.8,30.3,0.8h69.2l-7.8-153.1
		c0-0.8,45.1-34.2,50.5-34.2c9.3,56-3.1,94,31.9,100.3C470.1,588,488.8,584.9,488.8,584.9z M295.3,480.8l33.4,33.4l-33.4,34.2
		l-33.4-34.2L295.3,480.8z"/>
	<path class="st2" d="M573.5,584.9H624v49.7H448.4v-49.7h76.9c0-29.5-1.6-38.1-9.3-70c0-0.8,35-40.4,41.2-40.4
		c1.6,3.1,6.2,27.2,14,84.7L573.5,584.9z M515.2,377.4l33.4,33.4L515.2,445l-33.4-34.2L515.2,377.4z"/>
	<path class="st2" d="M809.8,634.7h-265v-49.7h95.6c-7-14.8-11.7-31.1-13.2-44.3c32.6-36.5,33.4-36.5,34.2-36.5s3.1,0.8,4.7,6.2
		c3.1,7,12.4,56,53.6,74.6h10.1c-10.1-14-19.4-30.3-19.4-35.8c0-8.6,31.1-36.5,31.1-36.5s1.6-1.6,3.9-1.6c5.4,0,14,47.4,44.3,70.7
		l3.9,3.1h3.1c0.8-3.1,0.8-7,0.8-11.7c0-29.5-10.1-66.1-10.1-67.6c0-9.3,39.6-37.3,37.3-37.3c14,0,22.5,97.2,25.7,122.8
		C850.2,619.9,842.4,630.8,809.8,634.7z"/>
</g>
</svg>
