<?xml version="1.0" encoding="utf-8"?>
<!-- Generator: Adobe Illustrator 24.3.0, SVG Export Plug-In . SVG Version: 6.00 Build 0)  -->
<svg version="1.1" id="Layer_1" xmlns="http://www.w3.org/2000/svg" xmlns:xlink="http://www.w3.org/1999/xlink" x="0px" y="0px"
	 viewBox="0 0 1080 1080" style="enable-background:new 0 0 1080 1080;" xml:space="preserve">
<style type="text/css">
	.st0{fill:#B89968;}
	.st1{fill:#FFFFFF;}
</style>
<circle class="st0" cx="539.9" cy="540" r="501.2"/>
<path class="st1" d="M795.6,507.9c-19.1-0.8-40.3,0.1-58,9.6C703.2,469.4,556,278.1,396,278.1c-145.3-1.7-138.1,114-106.4,180.6
	l48.1,92.5c-22.9-2.5-88.4-13.4-91-17.2c-33.7-14.2-66,24.8-64.3,56.6l0,70.9c0.2,2.8,3.7,27.1,51.2,29.8c6,0.3,11.1-4.4,11.4-10.4
	c0-0.8,0-1.6-0.2-2.4c-3.8-20,9.3-35.2,29.6-28.2l175.4,36.1c42.7,8.9,96.5-6.6,108.1-50.8l40,41.1c9.1,9.3,21.6,14.6,34.6,14.6
	h81.1c3.9,0,8-2.1,9.3-5.9c8.6,3.8,17.9,5.8,27.4,5.9c24.4-0.7,69,3.1,88-5.8c0.3-0.1,0.6-0.2,0.9-0.3c0,0,0.1,0,0.1,0
	C938.7,642.1,902.4,503.2,795.6,507.9z M237,637.3c-8.6,8.1-13.7,19.2-14.2,31c-12.7-2.4-17.6-6.8-18.7-9.1l0-68.9
	c-0.8-16.5,15-42.6,33.6-36.5c4.3,2.2,13.7,5.7,43.9,11l-13.3,62.5C256.2,626.3,245.4,629.7,237,637.3z M454.2,665.2l-164.6-33.9
	l13.4-63.1c15.4,2.3,33.9,4.9,53.8,7.4c0,0,0.1,0,0.1,0c37.1,4.6,69.2,7.9,69.5,7.9c5.9,0.8,11.4-3.3,12.2-9.2s-3.3-11.4-9.2-12.2
	c-0.3,0-0.5-0.1-0.8-0.1c-0.3,0-29.7-3-64.8-7.3L309,449.1c-24.5-55-39.7-151.3,87-149.3c149.3,0,294.2,189.1,324.3,230.8
	c-21.9,20.5-34.9,45.3-39.7,75.7c-0.7,6.2-0.8,12.5,0,18.8c-5.1-1.4-10.5-1.8-15.7-1.2c-1.6,0.3-15.8,0.1-38.8-53.4
	c-9.9-22.5-4.8-48.7,12.9-65.8c10.1-9.9-4.8-25.4-15-15.6c-25.7,24.6-31.6,64.5-14.9,96.2l-40.6,30l-10.8-11.1
	c-21-26.8-27.8-62-18.4-94.7v0c6.4-22.5,20.2-42.2,39.2-55.9c4.8-3.5,5.9-10.3,2.4-15.1c-14.9-18.9-49.5,32.6-54.9,45.3l-64.3-89.9
	c-8.3-11.5-25.8,1-17.6,12.6l73.2,102.3c-8.9,36.7-1.1,75.4,21.3,105.7C542.1,658.9,487.9,673,454.2,665.2z M632.6,669.7
	c-7.2,0-14-2.9-19-8l-29.9-30.7l35.2-26c15.9,28.7,31.8,42.1,48.3,40.4c15-1.6,25.2,12.8,30.8,24.4L632.6,669.7z M750,669.7
	c-30.1,0.3-52.2-31.8-47.9-60.5c4.4-27.9,17.3-50.3,39.5-68.6l0,0c12.2-9.9,29.5-11.5,47.1-11.2c24,46,35.8,92.4,35.3,138.2
	C804.2,672,765.4,668.9,750,669.7L750,669.7z M845.6,657.5c-1.1-42.5-12-85.2-32.4-127.4C876.4,539.5,900.3,618.8,845.6,657.5
	L845.6,657.5z"/>
</svg>
