<?xml version="1.0" encoding="utf-8"?>
<!-- Generator: Adobe Illustrator 24.3.0, SVG Export Plug-In . SVG Version: 6.00 Build 0)  -->
<svg xmlns="http://www.w3.org/2000/svg" viewBox="80 480 920 120">
<style type="text/css">
	.st0{fill:none;stroke:#B79967;stroke-width:6;stroke-miterlimit:10;}
	.st1{fill:#B79967;}
</style>
<path class="st0" d="M985.7,506.6v72.6c0,10.1-8.3,18.4-18.4,18.4H775.3l-24-57.4l22.8-52h193.2
	C977.4,488.2,985.7,496.5,985.7,506.6z"/>
<polygon class="st0" points="775.3,597.6 558.2,597.6 534.1,540.2 556.9,488.2 774.1,488.2 751.3,540.2 "/>
<polygon class="st0" points="558.2,597.6 329,597.6 304.9,540.2 327.7,488.2 556.9,488.2 534.1,540.2 "/>
<path class="st0" d="M329,597.6H112.5c-10.1,0-18.4-8.3-18.4-18.4v-72.6c0-10.1,8.3-18.4,18.4-18.4h215.2l-22.8,52L329,597.6z"/>
<g>
	<path class="st1" d="M893.9,564.6c1,0.9,2.5,0.7,3.4-0.3c5.8-6.8,9-15.5,9-24.5c-2.1-50.1-73.4-50.1-75.5,0
		c-0.4,29.8,34.5,48.4,58.9,31.2c2.6-1.8-0.1-5.7-2.7-3.9c-21.3,14.9-51.8-1.3-51.5-27.3c0-18.2,14.8-33,33-33
		c27.8-0.2,43.4,33.4,25.1,54.4C892.7,562.2,892.9,563.8,893.9,564.6L893.9,564.6z"/>
	<path class="st1" d="M861.3,559c1.9,0,3.8-0.7,5.2-2.2l23.6-23.5c6.7-7.1-3.3-16.9-10.4-10.4l-18.4,18.3l-4-4
		c-7-6.7-17.1,3.4-10.4,10.4l9.2,9.2C857.5,558.3,859.4,559,861.3,559L861.3,559z M850.3,544.3c-2.4-2.4,1.2-6,3.6-3.7l5.6,5.6
		c0.9,0.9,2.4,0.9,3.4,0l20-20c2.4-2.3,6,1.2,3.6,3.6l-23.5,23.6c-1,1-2.6,1-3.7,0L850.3,544.3L850.3,544.3z"/>
</g>
<g>
	<path class="st1" d="M680.1,565.6c1,0.9,2.5,0.7,3.4-0.3c5.8-6.8,9-15.5,9-24.5c-2.1-50.1-73.4-50.1-75.5,0
		c-0.4,29.8,34.5,48.4,58.9,31.2c2.6-1.8-0.1-5.7-2.7-3.9c-21.3,14.9-51.8-1.3-51.5-27.3c0-18.2,14.8-33,33-33
		c27.8-0.2,43.4,33.4,25.1,54.4C679,563.2,679.1,564.7,680.1,565.6L680.1,565.6z"/>
	<path class="st1" d="M647.5,560c1.9,0,3.8-0.7,5.2-2.2l23.6-23.5c6.7-7.1-3.3-16.9-10.4-10.4l-18.4,18.3l-4-4
		c-7-6.7-17.1,3.4-10.4,10.4l9.2,9.2C643.8,559.2,645.6,560,647.5,560L647.5,560z M636.6,545.3c-2.4-2.4,1.2-6,3.6-3.7l5.6,5.6
		c0.9,0.9,2.4,0.9,3.4,0l20-20c2.4-2.3,6,1.2,3.6,3.6l-23.5,23.6c-1,1-2.6,1-3.7,0L636.6,545.3L636.6,545.3z"/>
</g>
<g>
	<path class="st1" d="M456.9,568.2c1,0.9,2.5,0.7,3.4-0.3c5.8-6.8,9-15.5,9-24.5c-2.1-50.1-73.4-50.1-75.5,0
		c-0.4,29.8,34.5,48.4,58.9,31.2c2.6-1.8-0.1-5.7-2.7-3.9c-21.3,14.9-51.8-1.3-51.5-27.3c0-18.2,14.8-33,33-33
		c27.8-0.2,43.4,33.4,25.1,54.4C455.8,565.8,455.9,567.3,456.9,568.2L456.9,568.2z"/>
	<path class="st1" d="M424.3,562.6c1.9,0,3.8-0.7,5.2-2.2l23.6-23.5c6.7-7.1-3.3-16.9-10.4-10.4l-18.4,18.3l-4-4
		c-7-6.7-17.1,3.4-10.4,10.4l9.2,9.2C420.6,561.9,422.5,562.6,424.3,562.6L424.3,562.6z M413.4,547.9c-2.4-2.4,1.2-6,3.6-3.7
		l5.6,5.6c0.9,0.9,2.4,0.9,3.4,0l20-20c2.4-2.3,6,1.2,3.6,3.6l-23.5,23.6c-1,1-2.6,1-3.7,0L413.4,547.9L413.4,547.9z"/>
</g>
<g>
	<path class="st1" d="M226.2,567.5c1,0.9,2.5,0.7,3.4-0.3c5.8-6.8,9-15.5,9-24.5c-2.1-50.1-73.4-50.1-75.5,0
		c-0.4,29.8,34.5,48.4,58.9,31.2c2.6-1.8-0.1-5.7-2.7-3.9c-21.3,14.9-51.8-1.3-51.5-27.3c0-18.2,14.8-33,33-33
		c27.8-0.2,43.4,33.4,25.1,54.4C225.1,565.1,225.2,566.6,226.2,567.5L226.2,567.5z"/>
	<path class="st1" d="M193.6,561.9c1.9,0,3.8-0.7,5.2-2.2l23.6-23.5c6.7-7.1-3.3-16.9-10.4-10.4l-18.4,18.3l-4-4
		c-7-6.7-17.1,3.4-10.4,10.4l9.2,9.2C189.9,561.2,191.8,561.9,193.6,561.9L193.6,561.9z M182.7,547.2c-2.4-2.4,1.2-6,3.6-3.7
		l5.6,5.6c0.9,0.9,2.4,0.9,3.4,0l20-20c2.4-2.3,6,1.2,3.6,3.6l-23.5,23.6c-1,1-2.6,1-3.7,0L182.7,547.2L182.7,547.2z"/>
</g>
</svg>
