<?xml version="1.0" encoding="utf-8"?>
<!-- Generator: Adobe Illustrator 24.3.0, SVG Export Plug-In . SVG Version: 6.00 Build 0)  -->
<svg xmlns="http://www.w3.org/2000/svg" viewBox="80 480 920 120">
<style type="text/css">
	.st0{fill:none;stroke:#B79967;stroke-width:6;stroke-miterlimit:10;}
	.st1{fill:#B69767;}
</style>
<path class="st0" d="M328.4,540.2l-24,57.4H112.5c-10.1,0-18.4-8.3-18.4-18.4v-72.6c0-10.1,8.3-18.4,18.4-18.4h193.1L328.4,540.2z"
	/>
<polygon class="st0" points="328.4,540.2 305.6,488.2 305.7,488.2 "/>
<polygon class="st0" points="545.6,540.2 521.6,597.6 304.4,597.6 328.4,540.2 305.7,488.2 522.8,488.2 "/>
<polygon class="st0" points="328.4,540.2 305.6,488.2 305.7,488.2 "/>
<polygon class="st0" points="774.8,540.2 750.8,597.6 521.6,597.6 545.6,540.2 522.8,488.2 752,488.2 "/>
<path class="st0" d="M985.7,506.6v72.6c0,10.1-8.3,18.4-18.4,18.4H750.8l24-57.4l-22.8-52h215.2
	C977.4,488.2,985.7,496.5,985.7,506.6z"/>
<g>
	<path class="st1" d="M898.2,564.8c1,0.9,2.5,0.7,3.4-0.3c5.8-6.8,9-15.5,9-24.5c-2.1-50.1-73.4-50.1-75.5,0
		c-0.4,29.8,34.5,48.4,58.9,31.2c2.6-1.8-0.1-5.7-2.7-3.9c-21.3,14.9-51.8-1.3-51.5-27.3c0-18.2,14.8-33,33-33
		c27.8-0.2,43.4,33.4,25.1,54.4C897.1,562.4,897.2,564,898.2,564.8L898.2,564.8z"/>
	<path class="st1" d="M865.6,559.2c1.9,0,3.8-0.7,5.2-2.2l23.6-23.5c6.7-7.1-3.3-16.9-10.4-10.4l-18.4,18.3l-4-4
		c-7-6.7-17.1,3.4-10.4,10.4l9.2,9.2C861.9,558.5,863.7,559.2,865.6,559.2L865.6,559.2z M854.7,544.5c-2.4-2.4,1.2-6,3.6-3.7
		l5.6,5.6c0.9,0.9,2.4,0.9,3.4,0l20-20c2.4-2.3,6,1.2,3.6,3.6l-23.5,23.6c-1,1-2.6,1-3.7,0L854.7,544.5L854.7,544.5z"/>
</g>
<g>
	<path class="st1" d="M673.6,564.4c1,0.9,2.5,0.7,3.4-0.3c5.8-6.8,9-15.5,9-24.5c-2.1-50.1-73.4-50.1-75.5,0
		c-0.4,29.8,34.5,48.4,58.9,31.2c2.6-1.8-0.1-5.7-2.7-3.9c-21.3,14.9-51.8-1.3-51.5-27.3c0-18.2,14.8-33,33-33
		c27.8-0.2,43.4,33.4,25.1,54.4C672.5,562.1,672.6,563.6,673.6,564.4L673.6,564.4z"/>
	<path class="st1" d="M641,558.8c1.9,0,3.8-0.7,5.2-2.2l23.6-23.5c6.7-7.1-3.3-16.9-10.4-10.4L641,541.1l-4-4
		c-7-6.7-17.1,3.4-10.4,10.4l9.2,9.2C637.2,558.1,639.1,558.8,641,558.8L641,558.8z M630,544.2c-2.4-2.4,1.2-6,3.6-3.7l5.6,5.6
		c0.9,0.9,2.4,0.9,3.4,0l20-20c2.4-2.3,6,1.2,3.6,3.6l-23.5,23.6c-1,1-2.6,1-3.7,0L630,544.2L630,544.2z"/>
</g>
<g>
	<path class="st1" d="M450.4,566.1c1,0.9,2.5,0.7,3.4-0.3c5.8-6.8,9-15.5,9-24.5c-2.1-50.1-73.4-50.1-75.5,0
		c-0.4,29.8,34.5,48.4,58.9,31.2c2.6-1.8-0.1-5.7-2.7-3.9c-21.3,14.9-51.8-1.3-51.5-27.3c0-18.2,14.8-33,33-33
		c27.8-0.2,43.4,33.4,25.1,54.4C449.3,563.7,449.4,565.3,450.4,566.1L450.4,566.1z"/>
	<path class="st1" d="M417.8,560.5c1.9,0,3.8-0.7,5.2-2.2l23.6-23.5c6.7-7.1-3.3-16.9-10.4-10.4l-18.4,18.3l-4-4
		c-7-6.7-17.1,3.4-10.4,10.4l9.2,9.2C414,559.8,415.9,560.5,417.8,560.5L417.8,560.5z M406.8,545.8c-2.4-2.4,1.2-6,3.6-3.7l5.6,5.6
		c0.9,0.9,2.4,0.9,3.4,0l20-20c2.4-2.3,6,1.2,3.6,3.6L419.6,555c-1,1-2.6,1-3.7,0L406.8,545.8L406.8,545.8z"/>
</g>
<g>
	<path class="st1" d="M227.2,567.5c1,0.9,2.5,0.7,3.4-0.3c5.8-6.8,9-15.5,9-24.5c-2.1-50.1-73.4-50.1-75.5,0
		c-0.4,29.8,34.5,48.4,58.9,31.2c2.6-1.8-0.1-5.7-2.7-3.9c-21.3,14.9-51.8-1.3-51.5-27.3c0-18.2,14.8-33,33-33
		c27.8-0.2,43.4,33.4,25.1,54.4C226.1,565.1,226.2,566.7,227.2,567.5L227.2,567.5z"/>
	<path class="st1" d="M194.6,561.9c1.9,0,3.8-0.7,5.2-2.2l23.6-23.5c6.7-7.1-3.3-16.9-10.4-10.4l-18.4,18.3l-4-4
		c-7-6.7-17.1,3.4-10.4,10.4l9.2,9.2C190.8,561.2,192.7,561.9,194.6,561.9L194.6,561.9z M183.6,547.2c-2.4-2.4,1.2-6,3.6-3.7
		l5.6,5.6c0.9,0.9,2.4,0.9,3.4,0l20-20c2.4-2.3,6,1.2,3.6,3.6l-23.5,23.6c-1,1-2.6,1-3.7,0L183.6,547.2L183.6,547.2z"/>
</g>
</svg>
